<svg width="56" height="56" viewBox="0 0 56 56" fill="none" xmlns="http://www.w3.org/2000/svg">
<rect width="56" height="56" rx="28" fill="#E9496D"/>
<path d="M19.8206 24.387C19.1635 24.5639 18.5831 24.9526 18.1692 25.4928C17.7553 26.0329 17.5311 26.6945 17.5313 27.375V30.75C17.5313 31.5705 17.8572 32.3574 18.4374 32.9376C19.0176 33.5178 19.8045 33.8438 20.625 33.8438H23.4375C23.6613 33.8438 23.8759 33.7549 24.0341 33.5966C24.1924 33.4384 24.2812 33.2238 24.2812 33V25.125C24.2812 24.9012 24.1924 24.6866 24.0341 24.5284C23.8759 24.3701 23.6613 24.2812 23.4375 24.2812H21.5419C22.0245 21.5025 24.8539 19.2188 28.5 19.2188C32.1461 19.2188 34.9755 21.5025 35.4581 24.2812H33.5625C33.3387 24.2812 33.1241 24.3701 32.9659 24.5284C32.8076 24.6866 32.7188 24.9012 32.7188 25.125V33C32.7188 33.4657 33.0968 33.8438 33.5625 33.8438H35.4334C35.2434 34.6447 34.7888 35.358 34.143 35.8685C33.4972 36.3789 32.6981 36.6564 31.875 36.6562H30.5869C30.3911 36.1722 30.033 35.7713 29.574 35.5223C29.1151 35.2733 28.5838 35.1917 28.0713 35.2914C27.5587 35.3912 27.0968 35.6661 26.7648 36.069C26.4327 36.4719 26.2511 36.9778 26.2511 37.5C26.2511 38.0222 26.4327 38.5281 26.7648 38.931C27.0968 39.3339 27.5587 39.6088 28.0713 39.7086C28.5838 39.8083 29.1151 39.7267 29.574 39.4777C30.033 39.2287 30.3911 38.8278 30.5869 38.3438H31.875C34.575 38.3438 36.807 36.3413 37.1681 33.7414C37.8279 33.5664 38.4112 33.1781 38.8274 32.6371C39.2435 32.096 39.469 31.4326 39.4688 30.75V27.375C39.4689 26.6945 39.2447 26.0329 38.8308 25.4928C38.4169 24.9526 37.8365 24.5639 37.1794 24.387C36.7496 20.445 32.9167 17.5312 28.5 17.5312C24.0833 17.5312 20.2504 20.445 19.8206 24.387Z" fill="white"/>
</svg>
