<svg width="56" height="56" viewBox="0 0 56 56" fill="none" xmlns="http://www.w3.org/2000/svg">
<rect width="56" height="56" rx="28" fill="#E9496D"/>
<path d="M38.7146 17.2953C38.5041 17.0824 38.2533 16.9134 37.9768 16.7983C37.7004 16.6833 37.4038 16.6243 37.1043 16.625H30.8618C30.4523 16.6258 30.0596 16.788 29.769 17.0765L17.2895 29.5534C16.8637 29.9801 16.6245 30.5583 16.6245 31.1611C16.6245 31.764 16.8637 32.3422 17.2895 32.7689L23.2309 38.7103C23.6577 39.1363 24.2361 39.3756 24.8391 39.3756C25.4422 39.3756 26.0206 39.1363 26.4474 38.7103L38.9218 26.2384C39.2108 25.9482 39.3736 25.5557 39.3748 25.1461V18.9C39.3766 18.6021 39.3192 18.3068 39.2059 18.0314C39.0925 17.7559 38.9255 17.5057 38.7146 17.2953ZM34.4998 23.125C34.1784 23.125 33.8642 23.0297 33.597 22.8511C33.3297 22.6726 33.1215 22.4188 32.9985 22.1219C32.8755 21.8249 32.8433 21.4982 32.906 21.183C32.9687 20.8678 33.1235 20.5782 33.3507 20.351C33.578 20.1237 33.8675 19.9689 34.1827 19.9062C34.498 19.8435 34.8247 19.8757 35.1216 19.9987C35.4186 20.1217 35.6723 20.33 35.8509 20.5972C36.0295 20.8644 36.1248 21.1786 36.1248 21.5C36.1248 21.931 35.9536 22.3443 35.6488 22.6491C35.3441 22.9538 34.9307 23.125 34.4998 23.125Z" fill="white"/>
</svg>
