<svg width="34" height="34" viewBox="0 0 34 34" fill="none" xmlns="http://www.w3.org/2000/svg">
<path d="M10.5 14.6215V8.46154C10.5 6.74783 11.1848 5.10431 12.4038 3.89254C13.6228 2.68077 15.2761 2 17 2C18.7239 2 20.3772 2.68077 21.5962 3.89254C22.8152 5.10431 23.5 6.74783 23.5 8.46154V14.6215M5.08333 10.6154C4.79602 10.6154 4.52047 10.7288 4.3173 10.9308C4.11414 11.1328 4 11.4067 4 11.6923V26.2308C4 28.2662 5.74417 30 7.79167 30H26.2083C28.2558 30 30 28.3503 30 26.3149V11.6923C30 11.4067 29.8859 11.1328 29.6827 10.9308C29.4795 10.7288 29.204 10.6154 28.9167 10.6154H5.08333Z" stroke="white" stroke-width="1.5" stroke-linecap="round" stroke-linejoin="round"/>
</svg>
