<svg width="39" height="39" viewBox="0 0 39 39" fill="none" xmlns="http://www.w3.org/2000/svg">
<path d="M20.0017 1C14.8417 1 14.194 1.02261 12.1674 1.11476C10.1447 1.20748 8.76397 1.52762 7.55595 1.99749C6.30613 2.48275 5.24612 3.13197 4.1901 4.18836C3.13313 5.24456 2.4839 6.30456 1.99712 7.55379C1.52592 8.76218 1.20539 10.1435 1.11438 12.1652C1.02375 14.1919 1 14.8398 1 20C1 25.1602 1.0228 25.8058 1.11476 27.8323C1.20786 29.855 1.52801 31.2357 1.9975 32.4437C2.48314 33.6935 3.13237 34.7535 4.18877 35.8096C5.2446 36.8665 6.30461 37.5173 7.55348 38.0025C8.76245 38.4724 10.1434 38.7925 12.1657 38.8852C14.1925 38.9774 14.8396 39 19.9994 39C25.16 39 25.8056 38.9774 27.8322 38.8852C29.8549 38.7925 31.2372 38.4724 32.4461 38.0025C33.6954 37.5173 34.7539 36.8665 35.8095 35.8096C36.8665 34.7535 37.5155 33.6935 38.0025 32.4443C38.4695 31.2357 38.7902 29.8546 38.8852 27.8327C38.9762 25.8062 39 25.1602 39 20C39 14.8398 38.9762 14.1923 38.8852 12.1656C38.7902 10.1429 38.4695 8.76237 38.0025 7.55437C37.5155 6.30456 36.8665 5.24456 35.8095 4.18836C34.7527 3.13159 33.6958 2.48237 32.445 1.99768C31.2337 1.52762 29.8523 1.20729 27.8295 1.11476C25.8028 1.02261 25.1575 1 19.9958 1H20.0017ZM18.2972 4.42396C18.8032 4.4232 19.3677 4.42396 20.0017 4.42396C25.0749 4.42396 25.6761 4.4422 27.6794 4.5332C29.5319 4.61794 30.5374 4.92745 31.2071 5.18756C32.0939 5.53184 32.726 5.94356 33.3906 6.60874C34.0556 7.27374 34.4672 7.907 34.8124 8.79372C35.0725 9.46251 35.3824 10.468 35.4668 12.3205C35.5578 14.3234 35.5775 14.925 35.5775 19.9956C35.5775 25.0663 35.5578 25.668 35.4668 27.6708C35.382 29.5233 35.0725 30.5287 34.8124 31.1977C34.4681 32.0844 34.0556 32.7158 33.3906 33.3804C32.7256 34.0454 32.0943 34.457 31.2071 34.8014C30.5382 35.0627 29.5319 35.3714 27.6794 35.4562C25.6764 35.5472 25.0749 35.5669 20.0017 35.5669C14.9283 35.5669 14.327 35.5472 12.3242 35.4562C10.4717 35.3707 9.46621 35.0611 8.79589 34.801C7.90935 34.4566 7.27589 34.045 6.61089 33.38C5.94589 32.7151 5.53435 32.0833 5.18912 31.1962C4.92901 30.5272 4.61912 29.5218 4.53476 27.6693C4.44375 25.6663 4.42551 25.0648 4.42551 19.9909C4.42551 14.917 4.44375 14.3187 4.53476 12.3157C4.6195 10.4632 4.92901 9.45777 5.18912 8.78802C5.53359 7.9013 5.94589 7.26804 6.61108 6.60304C7.27627 5.93805 7.90935 5.52632 8.79608 5.18129C9.46583 4.92004 10.4717 4.61129 12.3242 4.52617C14.0769 4.44695 14.7562 4.4232 18.2972 4.41921V4.42396ZM30.1439 7.57868C28.8852 7.57868 27.8639 8.59897 27.8639 9.8579C27.8639 11.1166 28.8852 12.1379 30.1439 12.1379C31.4027 12.1379 32.4239 11.1166 32.4239 9.8579C32.4239 8.59916 31.4027 7.57792 30.1439 7.57792V7.57868ZM20.0017 10.2426C14.6133 10.2426 10.2444 14.6115 10.2444 20C10.2444 25.3885 14.6133 29.7553 20.0017 29.7553C25.3903 29.7553 29.7576 25.3885 29.7576 20C29.7576 14.6117 25.3899 10.2426 20.0013 10.2426H20.0017ZM20.0017 13.6666C23.4994 13.6666 26.3352 16.5019 26.3352 20C26.3352 23.4977 23.4994 26.3334 20.0017 26.3334C16.504 26.3334 13.6684 23.4977 13.6684 20C13.6684 16.5019 16.5038 13.6666 20.0017 13.6666Z" fill="#E9496D"/>
</svg>
