<svg width="13" height="13" viewBox="0 0 13 13" fill="none" xmlns="http://www.w3.org/2000/svg">
<path d="M6.5 6.175C6.07376 6.175 5.66498 6.0038 5.36358 5.69905C5.06218 5.3943 4.89286 4.98098 4.89286 4.55C4.89286 4.11902 5.06218 3.7057 5.36358 3.40095C5.66498 3.0962 6.07376 2.925 6.5 2.925C6.92624 2.925 7.33502 3.0962 7.63642 3.40095C7.93782 3.7057 8.10714 4.11902 8.10714 4.55C8.10714 4.7634 8.06557 4.97471 7.98481 5.17186C7.90404 5.36902 7.78566 5.54815 7.63642 5.69905C7.48718 5.84994 7.31001 5.96964 7.11503 6.0513C6.92004 6.13297 6.71105 6.175 6.5 6.175ZM6.5 0C5.30653 0 4.16193 0.479374 3.31802 1.33266C2.47411 2.18595 2 3.34327 2 4.55C2 7.9625 6.5 13 6.5 13C6.5 13 11 7.9625 11 4.55C11 3.34327 10.5259 2.18595 9.68198 1.33266C8.83807 0.479374 7.69347 0 6.5 0Z" fill="#E9496D"/>
</svg>
