<svg width="39" height="39" viewBox="0 0 39 39" fill="none" xmlns="http://www.w3.org/2000/svg">
<path d="M19.5 18.525C18.2213 18.525 16.9949 18.0114 16.0907 17.0971C15.1865 16.1829 14.6786 14.9429 14.6786 13.65C14.6786 12.3571 15.1865 11.1171 16.0907 10.2029C16.9949 9.28862 18.2213 8.775 19.5 8.775C20.7787 8.775 22.0051 9.28862 22.9093 10.2029C23.8135 11.1171 24.3214 12.3571 24.3214 13.65C24.3214 14.2902 24.1967 14.9241 23.9544 15.5156C23.7121 16.107 23.357 16.6445 22.9093 17.0971C22.4616 17.5498 21.93 17.9089 21.3451 18.1539C20.7601 18.3989 20.1332 18.525 19.5 18.525ZM19.5 0C15.9196 0 12.4858 1.43812 9.95406 3.99799C7.42232 6.55786 6 10.0298 6 13.65C6 23.8875 19.5 39 19.5 39C19.5 39 33 23.8875 33 13.65C33 10.0298 31.5777 6.55786 29.0459 3.99799C26.5142 1.43812 23.0804 0 19.5 0Z" fill="#E9496D"/>
</svg>
