<svg width="97" height="97" viewBox="0 0 97 97" fill="none" xmlns="http://www.w3.org/2000/svg">
<path d="M48.5256 19.1147V19.3122H47.6698C46.5507 19.3122 46.419 19.6414 46.419 20.6288V32.9391C46.419 33.9924 46.5507 34.2557 47.6698 34.2557H48.5256V34.4532H42.7325V34.2557H43.3908C44.5099 34.2557 44.6416 33.9266 44.6416 32.9391V19.5097H39.1119V24.7103C39.1119 30.4375 37.3344 34.0582 35.7545 35.2432L34.3721 33.7949C36.0837 32.4125 38.4536 29.4501 38.5194 25.237V20.8921C38.5194 19.378 38.3219 19.3122 36.6761 19.3122H36.1495V19.1147H48.5256Z" fill="white"/>
<path d="M57.15 34.2557H57.545C58.6641 34.2557 58.7958 34.124 58.7958 33.1365V27.7385H57.0183C56.9525 31.8858 55.0434 34.6507 52.0811 34.6507C51.0936 34.6507 50.2378 34.3873 49.5137 33.7949V32.0833C50.6328 32.8074 51.6861 33.2024 52.6077 33.2024C55.1751 33.2024 56.5575 31.2275 56.5575 27.7385C52.8052 27.7385 50.0403 26.2902 50.0403 23.3936C50.0403 20.4971 52.8052 19.0488 56.5575 19.0488H62.6797V19.2463H61.824C60.7048 19.2463 60.5732 19.378 60.5732 20.3655V33.0707C60.5732 34.124 60.7048 34.1898 61.824 34.1898H62.6797V34.3873H57.0842V34.2557H57.15ZM58.8616 20.6288C58.8616 20.168 58.9932 19.773 59.2566 19.5097H56.8208C53.9243 19.5097 52.2127 20.6288 52.2127 23.4595C52.2127 26.2902 53.9901 27.4093 56.8208 27.4093H58.8616V20.6288Z" fill="white"/>
<path d="M15.3467 54.7289H16.1366C17.2558 54.7289 17.3874 54.5973 17.3874 53.6098V40.9045C17.3874 39.8513 17.2558 39.7854 16.1366 39.7854H15.3467V39.5879H25.1554C25.5504 39.5879 25.6162 39.6538 25.8137 39.7854L25.7479 38.3372H25.9454L26.4062 44.591H26.0112L25.8795 43.0769C25.7479 40.7729 23.9046 39.9829 21.6006 39.9829H18.7699C19.0332 40.2462 19.2965 40.6412 19.2965 41.102V46.6318H20.9423C25.2212 46.6318 27.9861 48.2775 27.9861 50.7791C27.9861 53.2807 25.4187 54.9264 21.5347 54.9264H15.4125V54.7289H15.3467ZM19.2307 53.4123C19.2307 53.8731 19.099 54.2681 18.8357 54.5314V54.5973H21.0081C24.1679 54.5973 25.8795 53.2806 25.8795 50.8449C25.8795 48.3434 24.1021 47.0268 20.8764 47.0268H19.2307V53.4123Z" fill="white"/>
<path d="M29.6983 53.4123C30.0275 53.4781 30.6858 53.544 31.0149 53.544C32.7923 53.544 33.4507 52.8198 33.9115 51.8324L34.109 51.4374C34.1748 51.3057 34.2406 51.1082 34.2406 50.9108C34.2406 50.7133 34.1748 50.5158 34.0431 50.2525L29.6983 41.102C29.2375 40.1146 29.1058 39.7854 28.3159 39.7854H27.9209V39.5879H32.4632V39.7854H30.7516V39.8513C31.0808 39.9829 31.3441 40.4437 31.5416 40.8387L34.8989 47.8167C35.0306 48.1459 35.0964 48.6067 35.0964 48.7384V48.8042L35.2939 48.7384L38.5854 41.102C38.6512 40.8387 38.7171 40.6412 38.7171 40.4437C38.7171 40.0487 38.4538 39.7854 37.5321 39.7854H36.4788V39.5879H40.4945V39.7854H40.3628C39.5071 39.7854 39.3754 40.1804 39.0462 41.102L34.0431 52.4907C33.319 54.2023 32.0682 55.1239 30.8833 55.1239C30.1591 55.1239 29.6983 54.5973 29.6983 53.4123Z" fill="white"/>
<path d="M68.8025 53.0831C67.2226 54.3339 63.931 55.9797 60.5079 55.9797C51.0283 55.9797 49.5142 45.9076 45.3669 45.9076H45.0377V53.4123C45.0377 54.5972 45.1694 54.7289 46.2885 54.7289H47.0785V54.9264H41.0879V54.7289H41.8779C42.997 54.7289 43.1286 54.5972 43.1286 53.4123V40.9045C43.1286 39.8512 42.997 39.7854 41.8779 39.7854H41.0879V39.5879H46.486V39.7854H46.2885C45.1694 39.7854 45.0377 39.917 45.0377 40.9045V45.7101C45.8935 45.7101 46.3543 45.6443 46.5518 45.381L50.2383 41.102C50.5016 40.7728 50.6333 40.5095 50.6333 40.312C50.6333 39.917 50.1725 39.7196 49.4483 39.7196H49.2509V39.5221H54.5831V39.7196H54.1223C53.069 39.7196 51.6866 40.0487 50.6991 41.1678L46.9468 45.4468V45.5126C52.2132 46.6317 52.8715 55.1897 61.2978 55.1897C64.9185 55.1897 67.8809 53.3464 68.6708 52.8198L68.8025 53.0831ZM57.2163 45.2493V45.5126C57.2163 49.7258 58.9938 51.964 62.2853 51.964C65.0501 51.964 67.2226 50.7791 68.21 48.8042L68.605 49.0016C67.4859 51.0424 65.2476 52.359 62.2853 52.359C58.0063 52.359 55.2414 49.7258 55.2414 45.8418C55.2414 42.0236 58.0721 39.4562 62.3511 39.4562C66.1034 39.4562 68.605 41.497 68.605 44.5252V44.6568C68.605 44.986 68.2758 45.2493 67.8809 45.2493H57.2163ZM66.4984 44.6568C66.6301 44.6568 66.6959 44.591 66.6959 44.4593C66.6959 41.6286 64.9843 39.7854 62.3511 39.7854C59.2571 39.7854 57.5455 41.5628 57.2822 44.8543L66.4984 44.6568Z" fill="white"/>
<path d="M71.8289 54.7947H73.6063C74.7255 54.7947 74.8571 54.663 74.8571 53.6756V40.0487H73.4747C71.2364 40.0487 70.4465 40.4437 70.3148 42.4844L70.249 43.3402H69.854L70.249 38.4029H70.5123L70.3806 39.6537H81.3085L81.1768 38.4688H81.4402L81.7693 43.406H81.3743L81.3085 42.5502C81.111 40.5095 80.3869 40.1145 78.1486 40.1145H76.7662V53.7414C76.7662 54.7947 76.8979 54.8605 78.017 54.8605H79.7944V55.058H71.9606V54.7947H71.8289Z" fill="white"/>
<path d="M22.8518 66.8416C22.8518 66.9075 22.8518 66.9075 22.8518 66.8416C22.6543 66.9075 22.5226 66.9075 22.3909 66.9075H21.7326H21.1402C21.0085 66.9075 20.8768 66.9075 20.6793 66.9075C20.6793 66.9075 20.6793 66.9075 20.6793 66.8416C20.6793 66.7758 20.6793 66.7758 20.6793 66.7758C20.9427 66.7758 21.0743 66.71 21.1402 66.6442C21.206 66.5125 21.2718 66.315 21.2718 66.0517V60.127C21.0743 59.8636 20.9427 59.6003 20.7452 59.4686C20.5477 59.337 20.3502 59.2712 20.0869 59.2712C19.6919 59.2712 19.3627 59.5345 19.1652 59.9953C18.9678 60.4561 18.8361 61.1802 18.8361 62.2335V62.8918C19.2311 62.8918 19.6261 62.826 20.0869 62.826C20.0869 62.826 20.1527 62.826 20.1527 62.8918C20.1527 62.9577 20.1527 63.0235 20.1527 63.0893C20.1527 63.1551 20.1527 63.221 20.0869 63.2868C20.0869 63.3526 20.021 63.3526 20.021 63.3526C19.6261 63.221 19.2311 63.221 18.7703 63.1552V66.1175C18.7703 66.315 18.7703 66.5125 18.8361 66.5783C18.9019 66.71 18.9678 66.7758 19.0994 66.7758C19.2311 66.8417 19.4286 66.8416 19.7577 66.8416C19.7577 66.8416 19.8236 66.8417 19.8236 66.9075C19.8236 66.9733 19.8236 66.9733 19.7577 66.9733H19.0336C18.9019 66.9733 18.6386 66.9733 18.3095 66.9733H17.6512C17.5195 66.9733 17.3878 66.9733 17.1903 66.9733C17.1903 66.9733 17.1245 66.9733 17.1245 66.9075C17.1245 66.8417 17.1245 66.8416 17.1903 66.8416C17.3878 66.8416 17.5195 66.8417 17.6512 66.7758C17.717 66.71 17.7828 66.6442 17.8486 66.5783C17.9145 66.4467 17.9145 66.315 17.9145 66.1175V63.6818C17.9145 63.4185 17.8486 63.2868 17.7828 63.221C17.717 63.1551 17.5195 63.1552 17.1903 63.1552C17.1903 63.1552 17.1903 63.1551 17.1903 63.0893C17.1903 63.0235 17.1903 63.0235 17.1903 63.0235C17.4537 63.0235 17.6512 62.9577 17.717 62.8918C17.7828 62.826 17.8486 62.6943 17.8486 62.4968C17.9145 61.3119 18.112 60.4561 18.5069 59.9295C18.9019 59.4028 19.4944 59.1395 20.2844 59.1395C20.8768 59.1395 21.4035 59.2712 21.7985 59.6003C21.9301 59.4686 21.996 59.2712 21.996 59.1395C21.996 59.1395 21.996 59.1395 22.0618 59.1395C22.1276 59.1395 22.1276 59.1395 22.1276 59.1395V66.1833C22.1276 66.4467 22.1935 66.71 22.2593 66.7758C22.3909 66.71 22.5884 66.7758 22.8518 66.8416C22.8518 66.7758 22.8518 66.7758 22.8518 66.8416Z" fill="white"/>
<path d="M24.5645 66.7101C24.2354 66.5126 23.972 66.2492 23.7745 65.8543C23.5771 65.5251 23.5112 65.1301 23.5112 64.7351C23.5112 64.2743 23.6429 63.8794 23.8404 63.5502C24.1037 63.221 24.367 62.9577 24.762 62.8261C25.157 62.6944 25.4861 62.5627 25.8811 62.5627C26.3419 62.5627 26.7369 62.6944 27.0002 62.8919C27.3294 63.0894 27.5927 63.3527 27.7244 63.7477C27.9219 64.0768 27.9877 64.4718 27.9877 64.8668C27.9877 65.3276 27.856 65.6568 27.6585 66.0518C27.4611 66.3809 27.1319 66.6442 26.8027 66.8417C26.4736 67.0392 26.0786 67.105 25.6178 67.105C25.2886 67.0392 24.8937 66.9076 24.5645 66.7101ZM26.8027 66.3809C27.0002 66.1176 27.0661 65.6568 27.0661 65.1301C27.0661 64.6693 27.0002 64.2085 26.8686 63.8794C26.7369 63.5502 26.5394 63.2211 26.3419 63.0894C26.1444 62.8919 25.8811 62.8261 25.6178 62.8261C25.2886 62.8261 25.0253 62.9577 24.8937 63.221C24.6962 63.4844 24.6303 63.8794 24.6303 64.406C24.6303 64.8668 24.6962 65.3276 24.8278 65.6568C24.9595 66.0518 25.157 66.3151 25.3545 66.5126C25.552 66.7101 25.8153 66.8417 26.1444 66.8417C26.3419 66.8417 26.6053 66.7101 26.8027 66.3809Z" fill="white"/>
<path d="M36.0183 62.7602C36.0183 62.8261 36.0183 62.8261 36.0183 62.7602C35.8208 62.8261 35.6233 62.8919 35.4917 63.0236C35.36 63.1552 35.2284 63.4186 35.0967 63.7477L33.7801 66.8417C33.7801 66.8417 33.7143 66.9076 33.6484 66.9076C33.5826 66.9076 33.5168 66.9076 33.5168 66.8417L32.266 64.2743L31.1469 66.8417C31.1469 66.8417 31.081 66.9076 31.0152 66.9076C30.9494 66.9076 30.8836 66.9076 30.8836 66.8417L29.3036 63.5502C29.172 63.2211 29.0403 63.0236 28.9086 62.9577C28.777 62.8261 28.6453 62.8261 28.5137 62.8261C28.5137 62.8261 28.5137 62.8261 28.5137 62.7602C28.5137 62.6944 28.5137 62.6944 28.5137 62.6944C28.6453 62.6944 28.777 62.6944 28.8428 62.6944H29.5011H30.2253C30.3569 62.6944 30.4886 62.6944 30.6861 62.6944C30.6861 62.6944 30.6861 62.6944 30.6861 62.7602C30.6861 62.8261 30.6861 62.8261 30.6861 62.8261C30.2911 62.8261 30.0936 62.8919 30.0936 63.0894C30.0936 63.1552 30.0936 63.2211 30.1594 63.2869L31.4102 65.7226L32.1343 64.011L31.9368 63.616C31.8052 63.2869 31.6735 63.0894 31.5419 63.0236C31.476 62.9577 31.3444 62.8919 31.2127 62.8919C31.2127 62.8919 31.2127 62.8919 31.2127 62.8261C31.2127 62.7603 31.2127 62.7602 31.2127 62.7602C31.3444 62.7602 31.4102 62.7602 31.5419 62.7602H32.1343H32.8585C32.9901 62.7602 33.1218 62.7602 33.3193 62.7602C33.3193 62.7602 33.3193 62.7603 33.3193 62.8261C33.3193 62.8919 33.3193 62.8919 33.3193 62.8919C33.1218 62.8919 32.9901 62.8919 32.9243 62.9577C32.8585 63.0236 32.7926 63.0894 32.7926 63.1552C32.7926 63.2211 32.7926 63.2211 32.8585 63.2869L34.1093 65.7226L34.8992 63.7477C34.965 63.616 34.965 63.4844 34.965 63.3527C34.965 63.1552 34.8992 63.0894 34.7676 62.9577C34.6359 62.8919 34.4384 62.8261 34.2409 62.8261C34.2409 62.8261 34.2409 62.8261 34.2409 62.7602C34.2409 62.6944 34.2409 62.6944 34.2409 62.6944C34.4384 62.6944 34.5701 62.6944 34.7017 62.6944H35.36H35.8208C35.6892 62.6944 35.8208 62.6944 36.0183 62.7602Z" fill="white"/>
<path d="M40.1001 66.1834C40.1659 66.2492 40.1659 66.2492 40.1659 66.3151C39.9026 66.5784 39.6393 66.7101 39.3759 66.8417C39.1126 66.9734 38.8493 67.0392 38.5201 67.0392C38.0593 67.0392 37.7302 66.9734 37.401 66.7759C37.0719 66.5784 36.8086 66.3151 36.6769 65.9859C36.4794 65.6568 36.4136 65.3276 36.4136 64.9326C36.4136 64.5377 36.5452 64.1427 36.7427 63.7477C36.9402 63.4185 37.2694 63.0894 37.5985 62.8919C37.9935 62.6944 38.3885 62.5627 38.7835 62.5627C39.2443 62.5627 39.5734 62.6944 39.7709 62.8919C40.0342 63.0894 40.1001 63.4185 40.1001 63.8135C40.1001 64.011 40.0342 64.1427 39.9684 64.1427H37.3352C37.3352 64.2085 37.3352 64.2743 37.3352 64.406C37.3352 65.0643 37.4669 65.5251 37.796 65.9201C38.0593 66.3151 38.5201 66.4467 39.0468 66.4467C39.2443 66.4467 39.4418 66.4467 39.5734 66.3809C39.7051 66.4467 39.8367 66.3809 40.1001 66.1834ZM37.7302 63.1552C37.5327 63.3527 37.4669 63.616 37.401 64.011H39.1126C39.1126 63.2869 38.8493 62.8919 38.3885 62.8919C38.1252 62.8261 37.8618 62.9577 37.7302 63.1552Z" fill="white"/>
<path d="M44.248 62.7603C44.3797 62.8919 44.4455 63.0236 44.4455 63.1552C44.4455 63.2869 44.3797 63.4186 44.3139 63.4844C44.248 63.5502 44.1164 63.616 43.9847 63.616C43.9189 63.616 43.7872 63.616 43.7214 63.5502C43.6556 63.4844 43.5897 63.4844 43.5239 63.3527C43.4581 63.2869 43.3922 63.2211 43.3264 63.2211C43.2606 63.2211 43.1947 63.1552 43.1289 63.1552C43.0631 63.1552 42.9972 63.1552 42.8656 63.2211C42.7339 63.2869 42.6681 63.4186 42.4706 63.616V65.9201C42.4706 66.1176 42.4706 66.2493 42.5364 66.3809C42.6023 66.5126 42.6681 66.5784 42.7998 66.5784C42.9314 66.5784 43.1289 66.6442 43.3922 66.6442C43.3922 66.6442 43.4581 66.6442 43.4581 66.7101C43.4581 66.7759 43.4581 66.7759 43.3922 66.7759C43.1289 66.7759 42.9314 66.7759 42.7998 66.7759H41.944H41.2857C41.154 66.7759 41.0223 66.7759 40.8907 66.7759C40.8907 66.7759 40.8907 66.7759 40.8907 66.7101C40.8907 66.6442 40.8907 66.6442 40.8907 66.6442C41.154 66.6442 41.2857 66.5784 41.3515 66.5126C41.4173 66.3809 41.4832 66.1834 41.4832 65.9201V63.8794C41.4832 63.616 41.4832 63.4844 41.4173 63.3527C41.3515 63.2211 41.2857 63.2211 41.154 63.2211C41.0223 63.2211 40.8907 63.2869 40.6274 63.3527C40.6274 63.3527 40.5615 63.3527 40.5615 63.2869C40.5615 63.2211 40.5615 63.2211 40.5615 63.2211L42.0098 62.4969C42.0756 62.4969 42.0756 62.4969 42.0756 62.4969C42.1415 62.4969 42.2073 62.5628 42.2731 62.7603C42.3389 62.8919 42.4048 63.0894 42.4048 63.3527C42.6681 63.0236 42.9314 62.8261 43.1289 62.6944C43.3264 62.5628 43.4581 62.4969 43.6556 62.4969C43.9189 62.6286 44.1164 62.6944 44.248 62.7603Z" fill="white"/>
<path d="M46.2213 63.8794C46.3529 64.011 46.6162 64.2085 46.8796 64.3402C47.1429 64.4718 47.3404 64.6035 47.472 64.6693C47.6037 64.7352 47.7354 64.8668 47.867 65.0643C47.9987 65.196 47.9987 65.3935 47.9987 65.6568C47.9987 65.9201 47.9328 66.1176 47.8012 66.3151C47.6695 66.5126 47.472 66.7101 47.2745 66.8417C47.0112 66.9734 46.7479 67.0392 46.4188 67.0392C46.0238 67.0392 45.6288 66.9076 45.2996 66.7101C45.2338 66.6442 45.2338 66.6442 45.2338 66.5784V65.591C45.2338 65.591 45.2338 65.5251 45.2996 65.5251C45.3655 65.5251 45.3655 65.5251 45.3655 65.5251C45.4971 65.8543 45.6946 66.1834 45.8921 66.3809C46.1554 66.6442 46.4187 66.7101 46.6821 66.7101C46.8796 66.7101 47.0112 66.6442 47.0771 66.5784C47.2087 66.5126 47.2087 66.3151 47.2087 66.1834C47.2087 65.9201 47.1429 65.7226 46.9454 65.5251C46.7479 65.3276 46.5504 65.196 46.2213 65.0643C45.9579 64.9327 45.7605 64.801 45.6288 64.7352C45.4971 64.6693 45.3655 64.5377 45.2996 64.3402C45.2338 64.2085 45.168 64.011 45.168 63.7477C45.168 63.3527 45.2996 63.0236 45.6288 62.8261C45.9579 62.6286 46.2871 62.4969 46.7479 62.4969C47.0112 62.4969 47.3404 62.5628 47.6037 62.6286C47.6695 62.6286 47.6695 62.6944 47.6695 62.7603C47.6695 62.9577 47.6695 63.0236 47.6695 63.1552V63.6819C47.6695 63.6819 47.6695 63.6819 47.6037 63.6819C47.5379 63.6819 47.5379 63.6819 47.5379 63.6819C47.5379 63.5502 47.472 63.4186 47.3404 63.2211C47.2087 63.0894 47.0771 62.9577 46.8796 62.8261C46.6821 62.6944 46.4846 62.6944 46.3529 62.6944C46.0238 62.6944 45.8263 62.8261 45.8263 63.1552C45.9579 63.4844 46.0238 63.6819 46.2213 63.8794Z" fill="white"/>
<path d="M58.9271 66.8417C58.9271 66.9076 58.9271 66.9076 58.9271 66.8417L57.2813 66.9076C57.0838 66.9076 56.6888 66.7101 56.0964 66.3151C55.5697 66.7759 54.8456 67.0392 53.9898 67.0392C53.529 67.0392 53.134 66.9734 52.8048 66.8417C52.4757 66.7101 52.2124 66.5126 52.0807 66.2493C51.949 65.9859 51.8174 65.7226 51.8174 65.4593C51.8174 65.0643 51.949 64.7352 52.2124 64.4718C52.4757 64.2085 52.8048 63.8794 53.2656 63.5502C53.134 63.4186 53.0682 63.2211 52.9365 63.0236C52.8048 62.8261 52.739 62.6286 52.6732 62.4311C52.6073 62.2336 52.6073 62.0361 52.6073 61.8386C52.6073 61.5095 52.6732 61.1803 52.8707 60.8512C53.0023 60.5879 53.2656 60.3245 53.5948 60.1929C53.924 59.9954 54.2531 59.9295 54.6481 59.9295C55.0431 59.9295 55.3722 59.9954 55.6355 60.1929C55.8989 60.3904 56.0305 60.6537 56.0305 60.9828C56.0305 61.2462 55.9647 61.5095 55.7672 61.7728C55.6355 62.0361 55.4381 62.2336 55.1747 62.3653C54.9772 62.4969 54.6481 62.7602 54.1873 63.0236C54.7139 63.8135 55.4381 64.6035 56.4255 65.3276C56.5572 64.9985 56.623 64.6693 56.623 64.2744C56.623 63.8794 56.5572 63.6161 56.4255 63.4844C56.2938 63.2869 56.0964 63.2211 55.7672 63.2211C55.7672 63.2211 55.7672 63.2211 55.7672 63.1552C55.7672 63.0894 55.7672 63.0894 55.7672 63.0894H58.2688C58.2688 63.0894 58.2688 63.0894 58.2688 63.1552C58.2688 63.2211 58.2688 63.2211 58.2688 63.2211C58.0713 63.2211 57.8738 63.2211 57.7421 63.2869C57.6105 63.3527 57.5446 63.4186 57.4788 63.4844C57.413 63.5502 57.3471 63.7477 57.3471 63.9452C57.1496 64.6035 56.9521 65.1301 56.6888 65.5251C57.1496 65.8543 57.5446 66.1176 57.9396 66.3151C58.3346 66.5126 58.5979 66.6442 58.8612 66.7101C58.9271 66.7759 58.9271 66.7759 58.9271 66.8417ZM55.9647 66.1176C55.833 65.9859 55.7014 65.9201 55.5697 65.8543C55.1747 65.5251 54.7797 65.196 54.3848 64.801C53.9898 64.406 53.6606 64.0769 53.3973 63.6819C53.0023 64.0769 52.8048 64.4718 52.8048 64.9327C52.8048 65.196 52.8707 65.4593 53.0682 65.7226C53.1998 65.9859 53.4631 66.1834 53.7265 66.3151C53.9898 66.4467 54.3848 66.5126 54.7139 66.5126C55.2406 66.5784 55.6355 66.4468 55.9647 66.1176ZM54.1214 62.8919C54.3848 62.6286 54.6481 62.3653 54.7798 62.1019C54.9114 61.8386 55.0431 61.5095 55.0431 61.2462C55.0431 60.917 54.9772 60.6537 54.7798 60.522C54.6481 60.3245 54.4506 60.2587 54.1873 60.2587C53.7265 60.2587 53.529 60.522 53.529 61.1145C53.529 61.5753 53.7265 62.2336 54.1214 62.8919Z" fill="white"/>
<path d="M65.3138 66.5784C65.5771 66.6442 65.7746 66.71 65.9721 66.9075C66.1696 67.105 66.2354 67.3025 66.2354 67.6975C66.2354 68.0925 66.1038 68.4875 65.8404 68.8166C65.5771 69.1458 65.248 69.4749 64.853 69.6724C64.458 69.8699 63.9972 70.0016 63.5364 70.0016C63.0097 70.0016 62.6148 69.8699 62.3514 69.6724C62.0223 69.4749 61.8906 69.1458 61.8906 68.8166C61.8906 68.29 62.2856 67.8292 63.0097 67.3025C62.4831 67.1709 62.2198 66.9734 62.2198 66.5126C62.2198 66.3151 62.2856 66.0517 62.4173 65.9201C62.5489 65.7226 62.7464 65.5251 63.0097 65.3934C62.7464 65.2618 62.5489 65.0643 62.4173 64.8668C62.2856 64.6035 62.2198 64.406 62.2198 64.1427C62.2198 63.8793 62.2856 63.616 62.4831 63.4185C62.6806 63.221 62.8781 63.0235 63.1414 62.9577C63.4047 62.8261 63.7339 62.8261 64.063 62.8261C64.5238 62.8261 64.9188 62.9577 65.1821 63.1552C65.3796 63.0235 65.5771 62.9577 65.7746 62.8919C65.9721 62.8261 66.1696 62.8261 66.3671 62.8261C66.4329 62.8261 66.4329 62.8919 66.4329 63.0894C66.4329 63.221 66.4329 63.2869 66.3671 63.4185C66.3671 63.5502 66.3013 63.5502 66.3013 63.5502C65.9721 63.4185 65.7088 63.3527 65.5113 63.3527C65.4455 63.3527 65.3796 63.3527 65.3796 63.3527C65.5771 63.616 65.7088 63.8793 65.7088 64.1427C65.7088 64.406 65.643 64.6693 65.4455 64.8668C65.248 65.0643 65.0505 65.2618 64.7872 65.3934C64.5238 65.5251 64.1947 65.5909 63.8655 65.5909C63.6022 65.5909 63.4047 65.5909 63.2072 65.5251C63.0756 65.6568 62.9439 65.8543 62.9439 66.0517C62.9439 66.3151 63.0756 66.4467 63.2731 66.5784C63.4705 66.6442 63.8655 66.71 64.3922 66.71C64.7213 66.5126 65.0505 66.5784 65.3138 66.5784ZM65.1163 69.2116C65.3796 68.9483 65.5113 68.6191 65.5113 68.2241C65.5113 67.895 65.4455 67.6975 65.3138 67.5658C65.1821 67.4342 64.9846 67.3683 64.7872 67.3025C64.5897 67.2367 64.2605 67.2367 63.8655 67.2367C63.668 67.2367 63.4705 67.2367 63.2731 67.2367C62.9439 67.5 62.7464 67.8292 62.7464 68.2241C62.7464 68.685 62.8781 69.0141 63.1414 69.2116C63.4047 69.4749 63.7339 69.6066 64.1289 69.6066C64.5238 69.6066 64.853 69.4749 65.1163 69.2116ZM63.0097 63.7477C63.0097 64.0768 63.0756 64.3402 63.1414 64.5376C63.2072 64.801 63.3389 64.9326 63.5364 65.0643C63.668 65.1959 63.8655 65.2618 63.9972 65.2618C64.1947 65.2618 64.3263 65.1959 64.458 64.9985C64.5897 64.8668 64.6555 64.6035 64.6555 64.2743C64.6555 63.9452 64.5897 63.6819 64.5238 63.4844C64.3922 63.2869 64.2605 63.0894 64.1289 62.9577C63.9972 62.8261 63.7997 62.7602 63.6022 62.7602C63.2072 62.8261 63.0097 63.1552 63.0097 63.7477Z" fill="white"/>
<path d="M67.0242 66.8417C67.0242 66.7759 67.0242 66.7759 67.0242 66.8417C67.2876 66.7759 67.4851 66.71 67.5509 66.6442C67.6167 66.5126 67.6826 66.3151 67.6826 66.0517V64.0768C67.6826 63.8135 67.6825 63.6818 67.6167 63.5502C67.5509 63.4185 67.4851 63.3527 67.3534 63.3527C67.2217 63.3527 67.0901 63.4185 66.9584 63.4844C66.9584 63.4844 66.8926 63.4844 66.8926 63.4185C66.8926 63.3527 66.8926 63.3527 66.8926 63.3527L68.4725 62.6286C68.4725 62.6286 68.5383 62.6286 68.5383 62.6944L68.6042 62.7602V62.9577C68.6042 63.2869 68.6042 63.616 68.6042 64.011V65.9859C68.6042 66.2492 68.67 66.5126 68.7358 66.5784C68.8017 66.71 68.9992 66.71 69.1966 66.71C69.1966 66.71 69.1966 66.7101 69.1966 66.7759C69.1966 66.8417 69.1966 66.8417 69.1966 66.8417C68.9992 66.8417 68.8675 66.8417 68.7358 66.8417H68.0775H67.4192C67.3534 66.9075 67.2217 66.9075 67.0242 66.8417C67.0242 66.9075 67.0242 66.9075 67.0242 66.8417ZM67.5509 61.312C67.4192 61.1803 67.4192 61.0486 67.4192 60.8511C67.4192 60.6537 67.4851 60.522 67.5509 60.4562C67.6825 60.3903 67.8142 60.3245 68.0117 60.3245C68.2092 60.3245 68.3408 60.3903 68.4067 60.4562C68.5383 60.522 68.5383 60.7195 68.5383 60.8511C68.5383 61.0486 68.4725 61.1803 68.4067 61.312C68.3408 61.4436 68.1434 61.4436 68.0117 61.4436C67.8142 61.5094 67.6825 61.4436 67.5509 61.312Z" fill="white"/>
<path d="M76.1092 66.1834C76.175 66.1834 76.175 66.2492 76.1092 66.1834C76.175 66.2492 76.175 66.2492 76.175 66.2492C75.9117 66.5125 75.6484 66.71 75.4509 66.7759C75.1876 66.9075 74.9901 66.9733 74.6609 66.9733C74.3318 66.9733 74.0684 66.9075 73.8709 66.7759C73.6735 66.6442 73.5418 66.3809 73.5418 66.0517V63.5502C73.5418 63.3527 73.476 63.2868 73.4101 63.1552C73.3443 63.0894 73.1468 63.0235 72.8835 63.0235C72.6202 63.0235 72.0935 63.0235 71.3694 63.0235V65.9859C71.3694 66.1834 71.3694 66.3809 71.4352 66.4467C71.5011 66.5784 71.5669 66.6442 71.6985 66.6442C71.8302 66.71 72.0277 66.71 72.3568 66.71C72.3568 66.71 72.4227 66.71 72.4227 66.7759C72.4227 66.8417 72.4227 66.8417 72.3568 66.8417H71.6327C71.5011 66.8417 71.2377 66.8417 70.9086 66.8417H70.2503C70.1186 66.8417 69.987 66.8417 69.7895 66.8417C69.7895 66.8417 69.7236 66.8417 69.7236 66.7759C69.7236 66.71 69.7236 66.71 69.7895 66.71C69.987 66.71 70.1186 66.71 70.2503 66.6442C70.3161 66.5784 70.3819 66.5125 70.4478 66.4467C70.5136 66.315 70.5136 66.1834 70.5136 65.9859V63.5502C70.5136 63.2868 70.4478 63.1552 70.3819 63.0893C70.3161 63.0235 70.1186 63.0235 69.7895 63.0235C69.7895 63.0235 69.7895 63.0235 69.7895 62.9577C69.7895 62.8919 69.7895 62.8919 69.7895 62.8919C70.0528 62.8919 70.2503 62.826 70.3161 62.7602C70.3819 62.6944 70.4478 62.5627 70.4478 62.3652C70.5136 61.1803 70.7111 60.3245 71.1061 59.7978C71.5011 59.2712 72.0935 59.0079 72.9493 59.0079C73.3443 59.0079 73.6735 59.0737 73.8709 59.2054C74.0684 59.337 74.2001 59.4687 74.2001 59.6662C74.2001 59.7978 74.1343 59.9295 74.0684 59.9953C73.9368 60.0612 73.871 60.127 73.7393 60.127C73.6076 60.127 73.476 60.0612 73.4101 59.9953C73.3443 59.9295 73.2785 59.7978 73.1468 59.6662C73.081 59.5345 73.0152 59.4028 72.8835 59.337C72.7518 59.2712 72.686 59.2054 72.5543 59.2054C72.2252 59.2054 71.896 59.4687 71.6985 59.9295C71.5011 60.3903 71.3694 61.1144 71.3694 62.1019V62.7602C72.0935 62.7602 72.5543 62.7602 72.8835 62.7602C73.2785 62.7602 73.5418 62.6944 73.7393 62.5627C73.9368 62.431 74.0684 62.2336 74.2659 61.9702L74.3318 61.9044C74.3976 61.9044 74.3976 61.9044 74.3976 61.9702V62.826C74.8584 62.826 75.385 62.7602 75.8459 62.6944C75.8459 62.6944 75.9117 62.6944 75.9117 62.7602C75.9117 62.826 75.9117 62.8919 75.9117 62.9577C75.9117 63.0235 75.9117 63.0894 75.8459 63.1552C75.8459 63.221 75.78 63.221 75.78 63.221C75.385 63.1552 74.9242 63.0893 74.3976 63.0235V65.6567C74.3976 66.1834 74.6609 66.4467 75.1876 66.4467C75.385 66.4467 75.5167 66.4467 75.6484 66.3809C75.8459 66.3809 75.9775 66.315 76.1092 66.1834Z" fill="white"/>
<path d="M77.8863 63.8794C78.018 64.011 78.2813 64.2085 78.5446 64.3402C78.8079 64.4718 79.0054 64.6035 79.1371 64.6693C79.2687 64.7352 79.4004 64.8668 79.5321 65.0643C79.6637 65.196 79.6637 65.3935 79.6637 65.6568C79.6637 65.9201 79.5979 66.1176 79.4662 66.3151C79.3346 66.5126 79.1371 66.7101 78.9396 66.8417C78.6763 66.9734 78.4129 67.0392 78.0838 67.0392C77.6888 67.0392 77.2938 66.9076 76.9647 66.7101C76.8988 66.6442 76.8988 66.6442 76.8988 66.5784V65.591C76.8988 65.591 76.8988 65.5251 76.9647 65.5251C77.0305 65.5251 77.0305 65.5251 77.0305 65.5251C77.1622 65.8543 77.3597 66.1834 77.5571 66.3809C77.8205 66.6442 78.0838 66.7101 78.3471 66.7101C78.5446 66.7101 78.6763 66.6442 78.7421 66.5784C78.8737 66.5126 78.8738 66.3151 78.8738 66.1834C78.8738 65.9201 78.8079 65.7226 78.6104 65.5251C78.4788 65.3935 78.2155 65.196 77.8863 65.0643C77.623 64.9327 77.4255 64.801 77.2938 64.7352C77.1622 64.6693 77.0305 64.5377 76.9647 64.3402C76.8988 64.2085 76.833 64.011 76.833 63.7477C76.833 63.3527 76.9647 63.0236 77.2938 62.8261C77.623 62.6286 77.9521 62.4969 78.4129 62.4969C78.6763 62.4969 79.0054 62.5628 79.2687 62.6286C79.3346 62.6286 79.3346 62.6944 79.3346 62.7603C79.3346 62.9577 79.3346 63.0236 79.3346 63.1552V63.6819C79.3346 63.6819 79.3346 63.6819 79.2687 63.6819C79.2029 63.6819 79.2029 63.6819 79.2029 63.6819C79.2029 63.5502 79.1371 63.4186 79.0054 63.2211C78.8737 63.0894 78.7421 62.9577 78.5446 62.8261C78.3471 62.6944 78.1496 62.6944 78.018 62.6944C77.6888 62.6944 77.4913 62.8261 77.4913 63.1552C77.623 63.4844 77.6888 63.6819 77.8863 63.8794Z" fill="white"/>
<path d="M38.7825 75.7947C38.8483 75.8605 38.8483 75.8605 38.8483 75.8605C38.6508 76.058 38.4533 76.1897 38.2558 76.2555C38.0583 76.3213 37.8608 76.3872 37.5975 76.3872C37.2684 76.3872 37.005 76.3213 36.7417 76.1897C36.4784 76.058 36.3467 75.8605 36.2151 75.5972C36.0834 75.3339 36.0176 75.1364 36.0176 74.8731C36.0176 74.5439 36.0834 74.2806 36.2151 74.0173C36.3467 73.754 36.6101 73.5565 36.8734 73.4248C37.1367 73.2932 37.4658 73.2273 37.795 73.2273C38.1241 73.2273 38.3875 73.2932 38.5191 73.4248C38.6508 73.5565 38.7825 73.8198 38.7825 74.0831C38.7825 74.2148 38.7825 74.2806 38.7166 74.2806H36.8075C36.8075 74.3464 36.8075 74.4123 36.8075 74.4781C36.8075 74.9389 36.9392 75.3339 37.1367 75.5972C37.3342 75.8605 37.6633 75.9922 38.0583 75.9922C38.19 75.9922 38.3216 75.9922 38.4533 75.9264C38.4533 75.9264 38.585 75.8605 38.7825 75.7947ZM37.005 73.4906C36.8734 73.6223 36.8075 73.8198 36.7417 74.0831H37.9925C37.9925 73.5565 37.795 73.2273 37.4658 73.2273C37.3342 73.2931 37.1367 73.359 37.005 73.4906Z" fill="white"/>
<path d="M40.2315 74.0173C40.3632 74.149 40.4949 74.2148 40.7582 74.3464C40.9557 74.4781 41.0873 74.5439 41.219 74.6098C41.3507 74.6756 41.4165 74.7414 41.4823 74.8731C41.5482 75.0047 41.614 75.1364 41.614 75.2681C41.614 75.4656 41.5482 75.5972 41.4823 75.7947C41.4165 75.9264 41.2848 76.058 41.0873 76.1897C40.8899 76.2555 40.6924 76.3214 40.429 76.3214C40.1657 76.3214 39.9024 76.2555 39.6391 76.1239L39.5732 76.058V75.3339C39.5732 75.3339 39.5732 75.3339 39.6391 75.3339H39.7049C39.7707 75.5972 39.9024 75.7947 40.0999 75.9922C40.2974 76.1897 40.4949 76.2555 40.6924 76.2555C40.824 76.2555 40.9557 76.1897 41.0215 76.1239C41.0873 76.058 41.1532 75.9264 41.1532 75.7947C41.1532 75.5972 41.0873 75.4656 40.9557 75.3339C40.824 75.2022 40.6924 75.0706 40.429 75.0047C40.2315 74.9389 40.0999 74.8072 40.0341 74.7414C39.9024 74.6756 39.8366 74.6098 39.7707 74.4781C39.7049 74.3464 39.6391 74.2148 39.6391 74.0831C39.6391 73.754 39.7707 73.5565 39.9682 73.4248C40.1657 73.2932 40.429 73.2273 40.7582 73.2273C40.9557 73.2273 41.1532 73.2932 41.4165 73.359C41.4823 73.359 41.4823 73.4248 41.4823 73.4248C41.4823 73.5565 41.4823 73.6223 41.4823 73.6881V74.0831C41.4823 74.0831 41.4823 74.0831 41.4165 74.0831H41.3507C41.3507 73.9515 41.2848 73.8856 41.219 73.754C41.1532 73.6223 41.0215 73.5565 40.8898 73.4906C40.7582 73.4248 40.6265 73.359 40.4949 73.359C40.2316 73.359 40.0999 73.4906 40.0999 73.6881C40.0341 73.754 40.0999 73.9515 40.2315 74.0173Z" fill="white"/>
<path d="M44.4448 75.7947C44.5106 75.8605 44.5106 75.8605 44.5106 75.8605C44.3131 76.058 44.1156 76.1897 43.984 76.2555C43.7865 76.3213 43.6548 76.3872 43.4573 76.3872C43.2598 76.3872 43.0623 76.3213 42.8648 76.2555C42.7332 76.1238 42.6015 75.9922 42.6015 75.7288V73.9514C42.6015 73.7539 42.6015 73.6881 42.5357 73.6223C42.4699 73.5564 42.404 73.5564 42.2065 73.5564C42.2065 73.5564 42.2065 73.5564 42.2065 73.4906C42.2065 73.4906 42.2065 73.4906 42.2065 73.4248C42.7332 73.4248 42.9965 73.1615 43.1282 72.7665H43.194C43.2598 72.7665 43.2598 72.7665 43.2598 72.7665V73.4248C43.5232 73.4248 43.8523 73.4248 44.3131 73.359C44.3131 73.359 44.3131 73.359 44.3789 73.4248C44.3789 73.4906 44.3789 73.4906 44.3789 73.5564C44.3789 73.6223 44.3789 73.6223 44.3789 73.6881C44.3789 73.7539 44.3131 73.7539 44.3131 73.7539C44.0498 73.6881 43.6548 73.6223 43.2598 73.6223V75.5314C43.2598 75.7288 43.3257 75.8605 43.3915 75.9922C43.5232 76.058 43.6548 76.1238 43.8523 76.1238C44.0498 75.9922 44.2473 75.9263 44.4448 75.7947Z" fill="white"/>
<path d="M45.1688 76.2555C45.1029 76.1897 45.0371 76.058 45.0371 75.9263C45.0371 75.7947 45.1029 75.7288 45.1688 75.5972C45.2346 75.5314 45.3663 75.4655 45.4979 75.4655C45.6296 75.4655 45.7612 75.5314 45.8271 75.5972C45.8929 75.663 45.9587 75.7947 45.9587 75.9263C45.9587 76.058 45.8929 76.1897 45.8271 76.2555C45.7612 76.3213 45.6296 76.3872 45.4979 76.3872C45.3663 76.3872 45.2346 76.3213 45.1688 76.2555Z" fill="white"/>
<path d="M49.5792 75.1363C49.7767 74.9388 49.9741 74.7413 50.04 74.5438C50.1058 74.4122 50.1716 74.2147 50.1716 74.0172C50.1716 73.8197 50.1058 73.6222 49.9741 73.4906C49.8425 73.3589 49.7108 73.2931 49.5133 73.2931C49.3158 73.2931 49.1184 73.3589 48.9867 73.5564C48.855 73.7539 48.7234 74.0172 48.5917 74.3463C48.5259 74.3463 48.5259 74.3463 48.5259 74.3463L48.855 73.0297C48.855 73.0297 48.855 73.0297 48.9209 73.0297V73.0956C48.9209 73.1614 48.9867 73.2272 49.0525 73.2272C49.1184 73.2272 49.1842 73.2272 49.3158 73.1614C49.5792 73.0956 49.7767 73.0297 49.9083 73.0297C50.1716 73.0297 50.435 73.0956 50.5666 73.2272C50.6983 73.3589 50.8299 73.5564 50.8299 73.7539C50.8299 73.9514 50.7641 74.1489 50.6324 74.2805C50.5008 74.478 50.3691 74.6097 50.2375 74.7413C50.04 74.873 49.8425 75.0705 49.5792 75.268C49.5133 75.3338 49.4475 75.3338 49.3817 75.3996C49.3158 75.4655 49.3158 75.4655 49.25 75.4655C49.25 75.4655 49.25 75.4655 49.25 75.5313C49.25 75.5313 49.25 75.5313 49.3158 75.5313C49.7767 75.5313 50.1716 75.5313 50.3691 75.5313C50.5666 75.5313 50.7641 75.4655 50.8958 75.3996C51.0274 75.3338 51.0933 75.268 51.0933 75.0705C51.0933 75.0705 51.0933 75.0705 51.1591 75.0705C51.2249 75.0705 51.2249 75.0705 51.2249 75.0705L51.0933 75.9921V76.0579C51.0933 76.0579 51.0933 76.0579 51.0274 76.0579H48.5917C48.5917 76.0579 48.5259 76.0579 48.5259 75.9921C48.5259 75.9263 48.5259 75.9263 48.5259 75.8604C49.0525 75.6629 49.3817 75.3338 49.5792 75.1363Z" fill="white"/>
<path d="M52.6073 76.1896C52.344 76.058 52.1465 75.8605 52.0149 75.5972C51.8832 75.3339 51.8174 75.0705 51.8174 74.7414C51.8174 74.4122 51.8832 74.1489 52.0149 73.8856C52.1465 73.6223 52.344 73.4248 52.6073 73.2931C52.8707 73.1615 53.134 73.0956 53.4631 73.0956C53.7923 73.0956 54.0556 73.1615 54.3189 73.2931C54.5823 73.4248 54.7797 73.6223 54.9114 73.8856C55.0431 74.1489 55.1089 74.4122 55.1089 74.7414C55.1089 75.0705 55.0431 75.3339 54.9114 75.5972C54.7797 75.8605 54.5823 76.058 54.3189 76.1896C54.0556 76.3213 53.7923 76.3871 53.4631 76.3871C53.134 76.3871 52.8707 76.3213 52.6073 76.1896ZM54.1214 75.8605C54.2531 75.5972 54.3189 75.268 54.3189 74.873C54.3189 74.3464 54.2531 73.9514 54.0556 73.6881C53.8581 73.4248 53.6606 73.2931 53.3973 73.2931C53.134 73.2931 52.9365 73.4248 52.739 73.6881C52.6073 73.9514 52.5415 74.2806 52.5415 74.6756C52.5415 75.1364 52.6073 75.5313 52.8048 75.7947C53.0023 76.058 53.2657 76.2555 53.529 76.2555C53.7923 76.1896 53.9898 76.1238 54.1214 75.8605Z" fill="white"/>
<path d="M56.36 73.4906C56.36 73.4247 56.2942 73.3589 56.1626 73.3589C56.0967 73.3589 55.9651 73.2931 55.7676 73.2931C55.7676 73.2931 55.7676 73.2931 55.7676 73.2272V73.1614C55.9651 73.1614 56.0967 73.1614 56.1626 73.1614H56.755H57.2817C57.4133 73.1614 57.545 73.1614 57.6767 73.1614C57.6767 73.1614 57.6767 73.1614 57.6767 73.2272V73.2931C57.4792 73.2931 57.3475 73.2931 57.2817 73.3589C57.2158 73.3589 57.15 73.4247 57.0842 73.4906C57.0842 73.5564 57.0184 73.688 57.0184 73.8197V75.5971C57.0184 75.7288 57.0184 75.8604 57.0842 75.9263C57.0842 75.9921 57.15 76.0579 57.2817 76.0579C57.3475 76.0579 57.4792 76.1238 57.6767 76.1238C57.6767 76.1238 57.6767 76.1238 57.6767 76.1896C57.6767 76.2554 57.6767 76.2554 57.6767 76.2554C57.4792 76.2554 57.3475 76.2554 57.2817 76.2554H56.6892H56.1626C56.0309 76.2554 55.8992 76.2554 55.7676 76.2554C55.7676 76.2554 55.7676 76.2554 55.7676 76.1896C55.7676 76.1238 55.7676 76.1238 55.7676 76.1238C55.9651 76.1238 56.0967 76.1238 56.1626 76.0579C56.2284 76.0579 56.2942 75.9921 56.36 75.9263C56.36 75.8604 56.4259 75.7288 56.4259 75.5971V73.8197C56.4259 73.688 56.4259 73.5564 56.36 73.4906Z" fill="white"/>
<path d="M60.7045 75.5971C60.9019 75.7946 60.9678 76.058 60.9678 76.3213C60.9678 76.5846 60.9019 76.8479 60.7045 77.1112C60.507 77.3746 60.2436 77.6379 59.9145 77.8354C59.5853 78.0329 59.1245 78.2304 58.5979 78.4278C58.5979 78.4278 58.532 78.4278 58.532 78.362V78.2962C59.1245 78.0987 59.5853 77.7695 59.8487 77.4404C60.112 77.1112 60.2436 76.7163 60.2436 76.3871C60.2436 76.0579 60.1778 75.8605 59.9803 75.663C59.8487 75.4655 59.5853 75.3996 59.322 75.3996C59.1904 75.3996 59.1245 75.3996 58.9929 75.4655C58.9929 75.4655 58.9929 75.4655 58.927 75.3996V75.3338C59.322 75.2022 59.5853 75.0705 59.7828 74.873C59.9803 74.6755 60.0462 74.4122 60.0462 74.083C60.0462 73.8197 59.9803 73.6222 59.9145 73.4906C59.8487 73.3589 59.717 73.2931 59.5195 73.2931C59.322 73.2931 59.1245 73.3589 58.927 73.4906C58.7295 73.6222 58.5979 73.8855 58.4662 74.1489C58.4004 74.1489 58.4004 74.1489 58.4004 74.1489L58.6637 72.9639C58.6637 72.9639 58.6637 72.9639 58.7295 72.9639C58.7295 73.0298 58.7295 73.0298 58.7295 73.0298C58.7295 73.0956 58.7954 73.1614 58.8612 73.1614C58.927 73.1614 58.9929 73.1614 59.1245 73.0956C59.2562 73.0297 59.322 73.0298 59.4537 73.0298C59.5195 73.0298 59.6512 73.0298 59.7828 73.0298C60.112 73.0298 60.3095 73.0956 60.507 73.2931C60.7045 73.4906 60.7703 73.6881 60.7703 73.9514C60.7703 74.2147 60.7045 74.4122 60.5728 74.6755C60.4411 74.873 60.1778 75.0705 59.9145 75.2021C60.2436 75.268 60.507 75.3996 60.7045 75.5971Z" fill="white"/>
<path d="M13.8984 83.1675C8.69777 77.9669 4.87961 71.7788 2.50972 64.8666C0.271486 58.2836 -0.51848 51.1081 0.337315 44.1301C0.337315 43.9326 0.534806 43.8009 0.666467 43.8667C0.863958 43.8667 0.995615 44.0642 0.929784 44.1959C-0.715976 58.4811 4.15548 72.503 14.3592 82.7067C24.5629 92.9104 38.6506 97.7818 53.0016 96.0702C53.1991 96.0702 53.3308 96.2019 53.3308 96.3336C53.3308 96.531 53.1991 96.6627 53.0674 96.6627C46.0894 97.5185 38.9139 96.7285 32.265 94.4903C25.287 92.2521 19.099 88.3681 13.8984 83.1675Z" fill="white"/>
<path d="M93.2899 59.8633C93.2241 59.7975 93.1583 59.6658 93.2241 59.6C96.6473 43.9323 91.9075 27.8039 80.5847 16.481C69.3935 5.28988 53.3967 0.484265 37.7949 3.77578C37.5974 3.84161 37.4658 3.70995 37.3999 3.51246C37.3341 3.31497 37.4658 3.18331 37.6633 3.11748C45.2337 1.53755 53.1992 1.80087 60.6381 3.97327C68.3402 6.21151 75.3841 10.3588 81.0455 16.0202C86.7727 21.7475 90.92 28.8572 93.1583 36.5593C95.2648 44.064 95.5282 52.0295 93.8824 59.6658C93.8166 59.8633 93.6849 59.9291 93.4874 59.9291C93.4216 59.9291 93.3558 59.8633 93.2899 59.8633Z" fill="white"/>
<path d="M14.5567 77.9009C8.89533 71.3837 5.40632 63.3524 4.35304 54.7944C3.29975 46.3681 4.74802 37.876 8.50035 30.3055C8.56618 30.2397 8.63202 30.1738 8.76368 30.2397C8.82951 30.3055 8.89534 30.3713 8.82951 30.503C1.12735 46.039 3.49725 64.5373 14.8201 77.7034C14.8859 77.7692 14.8859 77.9009 14.8201 77.9667C14.7542 77.9667 14.6226 77.9667 14.5567 77.9009Z" fill="white"/>
<path d="M19.0328 82.3776C18.9669 82.3118 18.9669 82.1801 19.0328 82.1143C19.0986 82.0485 19.2303 82.0485 19.2961 82.1143C32.3963 93.503 50.9605 95.8729 66.4965 88.1707C66.5623 88.1049 66.694 88.1707 66.7598 88.2365C66.8256 88.3024 66.7598 88.434 66.694 88.4999C59.1235 92.2522 50.6314 93.7005 42.1392 92.6472C33.5813 91.5939 25.55 88.0391 19.0328 82.3776Z" fill="white"/>
<path d="M87.0372 66.7096C86.9713 66.6438 86.9713 66.578 86.9713 66.5121C93.3569 51.5028 90.6578 33.8603 80.0591 21.55C79.9933 21.4842 79.9933 21.3525 80.0591 21.2867C80.125 21.2208 80.2566 21.2208 80.3225 21.2867C85.6547 27.4747 89.1437 35.0452 90.3287 43.2082C91.5136 51.1737 90.4603 59.2708 87.3005 66.6438C87.3005 66.7755 87.2347 66.7755 87.0372 66.7096C87.103 66.7755 87.103 66.7096 87.0372 66.7096Z" fill="white"/>
<path d="M30.5533 9.8983C30.4874 9.83247 30.4874 9.83247 30.5533 9.8983C30.4874 9.76664 30.4875 9.63498 30.6191 9.56915C37.9921 6.47512 46.0234 5.48767 53.9889 6.67262C62.086 7.85757 69.5907 11.3466 75.7788 16.6788C75.8446 16.7447 75.8446 16.8763 75.7788 16.9422C75.7129 17.008 75.5813 17.008 75.5154 16.9422C63.271 6.4093 45.6943 3.64442 30.7508 9.8983C30.6849 9.96413 30.6191 9.8983 30.5533 9.8983Z" fill="white"/>
<path d="M87.2997 87.9732C87.1681 87.5783 86.5098 87.5124 86.1806 87.2491C84.5349 86.1958 82.4941 85.8667 80.585 86.3933C82.2966 85.8008 83.4157 84.2867 84.4032 82.8385C84.3374 82.246 81.9016 83.6943 81.4408 83.7601C80.6509 84.1551 80.0584 84.8134 79.4001 85.4059C79.2026 85.6033 79.0709 85.8008 78.9393 85.9325C78.5443 86.3933 78.0176 86.7225 77.4252 86.5908C76.6352 86.6566 75.8452 86.6566 75.0553 86.7883H74.9894C74.792 86.7883 74.5286 86.8541 74.3311 86.92C76.0427 85.6033 77.6885 84.2209 79.3342 82.7726C80.5192 81.7193 81.7041 80.5344 83.2841 80.0078C83.4157 79.9419 83.5474 79.9419 83.6132 79.8761C84.5348 79.547 85.5881 79.547 86.3123 80.2711C87.7605 81.3244 89.7354 81.851 91.2495 80.6661C91.5787 80.3369 93.9486 79.547 92.5003 79.2836H92.5662C89.538 77.8354 87.2997 79.0203 84.2715 79.3495C84.5348 79.0861 84.7982 78.8886 85.1273 78.8228C85.3248 78.757 85.5881 78.6253 85.7856 78.6253C87.2997 78.362 88.2872 77.1112 88.9455 75.7946C89.0113 75.5971 89.6038 74.9388 89.0113 75.1363C84.9298 75.663 85.9173 78.6912 83.1524 79.7444C82.8233 79.8761 82.4283 80.0078 82.165 80.2053C84.0082 78.2962 85.8515 76.3213 87.563 74.2805C88.0897 73.4906 89.0113 72.9639 89.9329 72.7664C90.4596 72.7664 90.9204 73.2272 91.3154 73.4906C91.7104 74.3464 91.7762 75.4655 92.7637 75.9263C93.8828 76.5188 95.1994 76.0579 96.4501 75.9263C96.5818 75.9263 96.7135 75.9263 96.8451 75.9263C97.1743 75.8604 96.8451 75.5971 96.7793 75.4655C96.7793 75.3996 96.7135 75.3996 96.7135 75.3338C95.5285 74.4122 94.0144 73.7539 92.5003 73.5564C91.9737 73.4906 91.5787 73.2931 91.1837 72.9639C90.9862 72.8323 90.7887 72.7664 90.5912 72.6348C91.0521 72.7006 91.5129 72.9639 91.9737 73.0297C93.8169 73.5564 94.936 72.1739 96.121 70.989C96.121 70.989 96.121 70.989 96.0552 71.0548C97.0426 70.0674 94.4094 70.6598 93.9486 70.594H94.0144C91.447 70.594 90.7229 72.1739 88.6822 72.8981C89.8671 71.384 90.7887 69.4091 92.7637 68.6849C94.5411 68.3558 95.5285 66.8417 96.7135 65.7226C96.7793 65.5909 97.1743 65.3276 96.911 65.1959C95.2652 65.9859 93.1586 66.315 91.9737 67.8291C92.5003 66.9075 92.6978 65.8542 92.6978 64.8009C92.8295 63.9452 92.5003 63.0894 92.632 62.2336C92.6978 62.1019 92.632 61.9702 92.5003 62.0361C92.4345 62.1019 92.3687 62.1677 92.3687 62.2336C90.3279 64.7351 90.3279 65.6567 90.9862 68.7508C90.9862 69.0141 90.9204 69.2774 90.7887 69.4749C89.538 71.1865 88.2872 72.8981 86.9706 74.5438C86.9706 74.5438 86.9706 74.5438 86.9706 74.6097C86.8389 74.7413 86.7731 74.873 86.6414 74.9388C88.2213 70.7915 87.2339 70.0015 86.049 66.1834C85.8515 63.616 84.6007 67.6316 84.7323 68.29C84.864 69.8699 85.9831 71.0548 86.8389 72.3056L86.9047 72.3714C86.9047 72.3714 86.9047 72.4373 86.9706 72.4373C86.8389 73.2931 86.6414 74.1489 86.3123 74.9388C85.8515 76.1238 84.7323 76.9137 83.9424 77.9012C82.3624 79.6786 80.6509 81.3244 78.8076 82.8385C78.8076 82.7068 78.8734 82.5752 78.8734 82.3777C79.0051 81.5219 78.9393 80.5344 79.5317 79.9419C79.5976 79.8103 79.7292 79.7444 79.7951 79.6786C80.3217 79.3495 80.7167 78.8886 81.1117 78.4278C81.9016 77.5062 82.3625 76.4529 82.2308 75.2021C82.165 74.1489 82.2308 73.0297 82.0333 71.9765C82.0333 71.6473 81.9016 71.8448 81.77 71.9765C79.5317 74.4122 78.7418 77.6379 78.8076 80.8636C78.1493 79.8103 78.6759 78.6253 78.4126 77.572C78.1493 75.7288 76.7669 74.1489 75.3844 73.0956C75.1869 73.0297 75.2528 73.2931 75.3186 73.4247C75.6477 75.0047 75.0553 76.7821 76.0427 78.1645C76.5694 79.152 77.886 79.2836 78.3468 80.2711C78.4126 80.6661 78.4785 81.061 78.7418 81.3244C78.8734 81.7852 78.6101 82.3777 78.4785 82.8385C78.4785 82.8385 78.4785 82.9043 78.4126 82.9043C76.306 85.2742 73.4095 87.0516 70.8421 88.9607C69.8547 89.5532 68.933 90.2115 67.8798 90.804H67.8139C67.8798 90.6723 67.8798 90.4748 67.9456 90.2773C67.9456 90.2773 67.9456 90.2773 67.9456 90.2115V90.1456C67.9456 90.0798 67.9456 90.0798 67.9456 90.014C68.1431 89.3557 68.4722 88.7632 68.8014 88.1707C68.8672 88.1049 68.8672 88.0391 68.933 87.9732C69.7888 86.9858 71.3029 86.6566 72.0271 85.5375C72.817 84.2867 73.212 82.8385 72.8829 81.3902C72.8829 81.3902 72.8829 81.3902 72.8829 81.456C72.7512 81.1927 73.2779 79.6786 72.6854 80.0078C72.3562 80.6661 71.8954 81.3244 71.6979 82.0485C70.9738 83.036 70.2497 84.0892 69.5914 85.1425C69.7888 84.6159 69.5255 84.0234 69.7888 83.6284C70.7763 82.5751 71.2371 81.1927 71.2371 79.8103C71.1713 78.8886 71.0396 77.967 70.5788 77.1771C70.4471 76.9796 70.4471 76.4529 70.118 76.5846C70.0522 77.8354 69.5255 78.9545 69.1964 80.1394C69.1964 80.1394 69.1964 80.1394 69.1964 80.0736C68.6697 82.246 69.9863 84.4842 68.9989 86.6566C68.9989 86.6566 68.9989 86.6566 68.9989 86.5908C68.8672 86.8541 68.8014 87.1174 68.6697 87.3808C68.1431 85.5375 68.933 85.4717 68.2747 83.9576C67.7481 82.1143 65.1149 80.3369 63.2058 80.6002C62.6792 80.6661 63.14 80.9952 63.4033 81.1269C63.7983 81.456 64.1274 81.851 64.5224 82.246C64.7199 82.5093 64.9174 82.7726 65.0491 83.1018C65.444 83.8918 65.7074 84.8134 66.5631 85.2742C66.9581 85.5375 67.2873 85.9325 67.7481 86.1958C68.2089 86.4591 68.2747 87.0516 68.3406 87.5783C68.3406 87.6441 68.3406 87.7758 68.3406 87.8416C68.3406 87.9074 68.3406 87.9732 68.3406 88.0391C68.3406 88.1049 68.3406 88.1707 68.2747 88.1707C66.8923 91.1331 67.2215 91.2648 64.2591 92.7789C62.5475 93.7663 61.1651 94.293 58.9927 94.8854C58.5318 95.0171 58.071 95.1488 57.3469 95.2804C56.2278 95.5437 55.1745 95.6754 55.1745 95.6754C55.0428 95.8729 55.1745 96.3337 55.2403 96.3337C55.767 96.2679 57.2811 96.0046 58.7952 95.5437C59.7168 95.2804 60.6384 94.9513 61.4942 94.8196C63.0083 94.5563 64.2591 94.6221 64.5882 94.6221C64.5882 94.6221 64.5882 94.6221 64.5224 94.6221C64.9174 94.6221 65.3124 94.7538 65.6415 94.8196C66.1682 94.8854 66.4973 95.3462 66.9581 95.6096C67.8798 96.2679 69.0647 96.7287 70.2497 96.6629C71.6979 96.3995 73.212 96.5312 74.6603 96.0045C74.6603 96.0045 74.6603 96.0045 74.5945 96.0045C75.3844 95.7412 73.212 94.9513 73.0145 94.6879C75.1869 95.6754 76.701 93.503 78.3468 92.4497C78.5443 92.1864 78.0176 92.1206 77.8202 92.0547C75.5161 91.4623 73.3437 92.713 71.3029 93.503C71.0396 93.5688 70.7763 93.6347 70.513 93.7663C68.8672 94.0296 67.1556 94.3588 65.444 94.2271C65.7732 94.0955 66.1023 93.8321 66.4315 93.7005C66.4315 93.7005 66.4315 93.7005 66.4973 93.7005C66.5632 93.7005 66.629 93.7005 66.629 93.6347C67.8798 93.6347 69.2622 93.7005 70.513 93.2397C71.6979 92.713 73.0804 91.9889 73.8045 90.8698C73.5412 90.6723 73.0145 90.9356 72.6854 90.8698C71.7638 91.0014 70.7105 90.9356 69.7888 91.2648C68.2747 91.7256 67.3531 93.0422 65.9707 93.7005C65.5757 93.9638 65.1149 94.0955 64.7199 94.293C64.5224 94.3588 64.3249 94.293 64.1274 94.293C63.6666 94.293 63.2716 94.2271 62.8108 94.293C65.9707 92.5814 69.0647 90.7381 71.9613 88.6974C71.9613 88.6974 71.9612 88.6974 72.0271 88.6974C72.1587 88.6315 72.2904 88.4999 72.4221 88.4341C72.4879 88.4341 72.4879 88.3682 72.5537 88.3682C72.9487 88.1707 73.3437 87.9732 73.7387 87.7099H73.6728C74.5286 87.2491 75.5161 87.1833 76.4377 87.0516C76.4377 87.0516 76.4377 87.0516 76.3719 87.0516C76.7669 86.9858 77.2277 86.9858 77.6227 87.0516C77.6227 87.0516 77.6227 87.0516 77.5568 87.0516C77.6227 87.0516 77.6885 87.0516 77.7543 87.0516C78.0835 87.1174 78.4126 87.2491 78.6759 87.3808C79.6634 87.9074 80.3875 88.8949 81.5067 89.224C83.4816 90.014 85.654 89.0924 87.2997 87.9732ZM94.8044 75.8604C93.1586 76.2554 92.0395 75.2021 91.7762 73.6222C93.3561 75.0047 94.6069 74.9388 96.4501 75.5971C95.8577 75.7288 95.331 75.7946 94.8044 75.8604ZM92.3028 73.6881C92.5662 73.7539 92.8295 73.8197 93.0928 73.8855C94.1461 74.2147 95.1335 74.6755 96.121 75.268C94.7386 74.9388 93.3561 74.6755 92.237 73.6881C92.237 73.6881 92.237 73.6881 92.3028 73.6881ZM94.2777 67.5658C93.6194 68.0266 92.8953 68.2241 92.1712 68.4874C92.3028 68.3558 92.4345 68.29 92.5662 68.1583C93.027 67.7633 93.6195 67.5658 94.0803 67.2367C94.6069 66.9733 95.0019 66.5784 95.4627 66.315C95.0677 66.7759 94.6727 67.2367 94.2777 67.5658ZM92.8295 67.4342C93.4219 66.9734 94.1461 66.71 94.8702 66.4467C94.8044 66.5125 94.7386 66.5125 94.6727 66.5784C94.0144 67.0392 93.2903 67.4342 92.632 67.8291C92.3028 68.0266 91.9737 68.29 91.7104 68.4874C92.1054 68.1583 92.4345 67.7633 92.8295 67.4342ZM92.3687 63.1552C92.5003 64.7351 92.237 66.3809 91.5129 67.895C92.1053 66.2492 91.6445 64.406 92.3028 62.7602C92.3687 62.8919 92.3687 63.0235 92.3687 63.1552ZM91.1179 68.5533C91.1179 67.6975 90.7887 66.9075 90.8546 66.1176C90.8546 66.1176 90.8546 66.1176 90.8546 66.0517C90.8546 64.8668 91.5787 63.8135 92.237 62.826C91.7104 63.6818 91.7762 64.6693 91.7104 65.5909C91.6445 66.6442 91.3812 67.6317 91.1837 68.6849C91.1179 68.6191 91.1179 68.5533 91.1179 68.5533ZM85.654 66.5784C85.654 66.6442 85.654 66.71 85.7198 66.71C86.1148 68.1583 87.1022 69.4749 87.0364 70.989C86.7073 69.3432 85.5881 67.895 85.654 66.2492C85.5881 66.3809 85.654 66.5125 85.654 66.5784ZM86.7073 71.4498C86.1148 70.6598 85.5223 69.9357 85.1932 69.0141C84.7982 68.0266 85.0615 66.9733 85.4565 66.0517C85.1273 68.0925 86.6414 69.8041 86.9047 71.7131C86.8389 71.5815 86.7731 71.5156 86.7073 71.4498ZM94.0803 72.4373C93.1586 73.0297 92.0395 72.6348 91.0521 72.3714C92.5662 72.1081 94.1461 71.8448 95.4627 71.0548C95.0019 71.4498 94.5411 71.9765 94.0803 72.4373ZM91.1837 71.779C92.3687 71.0548 93.8169 70.989 95.1335 70.989C93.8169 71.779 92.237 71.8448 90.7229 72.1081C90.9204 71.9765 91.0521 71.9106 91.1837 71.779ZM69.5255 83.036C68.933 80.9952 69.9205 79.2836 70.3155 77.3745C71.1713 78.9545 71.1055 80.9952 70.2497 82.5752C70.1838 82.641 70.1838 82.7068 70.118 82.7726C69.9863 83.1018 69.723 83.2993 69.5255 83.5626C69.5913 83.3651 69.5255 83.2335 69.5255 83.036ZM72.6196 81.9168C72.7512 82.7068 72.6854 83.4968 72.3562 84.2867C71.9612 85.735 70.7105 86.4591 69.5255 87.1174C69.5913 86.9858 69.6572 86.92 69.7888 86.7883C70.9738 85.4059 72.0929 83.8259 72.5537 82.0485C72.6195 81.851 72.6854 81.7194 72.6854 81.5219C72.5537 81.7194 72.6196 81.7852 72.6196 81.9168ZM70.5788 84.0892C71.1713 83.1018 72.0271 82.3118 72.4221 81.1927C71.8954 83.4968 70.513 85.2742 69.0647 87.0516C69.1305 86.92 69.1964 86.7225 69.2622 86.5908C69.2622 86.5908 69.2622 86.5908 69.2622 86.6566C69.5255 85.735 70.0522 84.945 70.5788 84.0892ZM64.0616 80.9294C64.8516 80.9952 65.5099 81.456 66.1682 81.9168C66.3657 82.0485 66.4973 82.1802 66.6948 82.3118C67.7481 83.1018 68.3406 84.6159 68.0114 85.8667C67.5506 84.3526 66.4973 83.1018 65.3124 82.0485C65.3124 82.0485 65.3124 82.0485 65.2465 81.9827C65.2465 81.9827 65.2465 81.9827 65.1807 81.9168C65.0491 81.7852 64.9832 81.6535 64.8516 81.5877C64.5224 81.1927 64.0616 80.9952 63.535 80.7977C63.6008 80.7977 63.7324 80.7977 63.7983 80.7977C63.9958 80.9294 64.0616 80.9294 64.0616 80.9294ZM66.9581 85.2742C66.8265 85.1425 66.6948 85.0767 66.5631 84.945C65.7732 84.4184 65.6415 83.3651 65.1807 82.641C64.7857 82.0485 64.1933 81.5219 63.6666 80.9952C63.7983 81.061 63.9958 81.1269 64.1274 81.1927C64.1274 81.1927 64.1933 81.1927 64.1933 81.2585C64.8516 81.5877 65.1807 82.246 65.7074 82.7068C66.629 83.6284 67.2873 84.6817 67.7481 85.9325C67.4848 85.735 67.2215 85.4717 66.9581 85.2742ZM73.7387 96.1362C73.4753 96.202 73.212 96.202 72.9487 96.202C72.9487 96.202 72.9487 96.202 73.0145 96.202C70.7763 96.3995 68.6039 96.7287 66.7606 95.0171C66.7606 95.0171 66.7606 95.0171 66.6948 95.0171C66.629 94.9513 66.4973 94.8196 66.4315 94.7538C67.5506 95.0829 68.6039 95.4121 69.7888 95.3462C70.8421 95.3462 71.8954 95.4779 72.8829 95.6096C73.3437 95.7412 73.8703 95.7412 74.3311 96.0045C74.0678 96.0704 73.9362 96.1362 73.7387 96.1362ZM77.6227 92.7789C74.7261 95.2804 74.6603 95.0171 71.1713 93.9638C72.4221 93.9638 73.6728 93.9638 74.8578 93.3713C75.1211 93.2397 75.3844 93.1738 75.7136 93.0422C75.9111 92.9764 76.1086 92.8447 76.3061 92.8447C76.3061 92.8447 76.3061 92.8447 76.2402 92.8447C76.6352 92.8447 77.0302 92.5814 77.4252 92.5814C77.491 92.5814 77.491 92.5814 77.5568 92.5814C77.5568 92.5814 77.5568 92.5814 77.6227 92.5814C77.6227 92.5814 77.6227 92.5814 77.6885 92.5814C77.6885 92.5814 77.6885 92.5814 77.7543 92.5814C77.8201 92.5814 77.886 92.5814 77.9518 92.5155C77.9518 92.5155 77.9518 92.5155 78.0176 92.5155H78.0835C77.8201 92.6472 77.7543 92.713 77.6227 92.7789ZM71.6979 93.7663C73.5412 93.108 75.3844 92.1206 77.4252 92.3839C76.8327 92.5155 76.1744 92.713 75.5819 92.9105C75.2528 93.0422 74.9894 93.108 74.7261 93.2397C73.7387 93.6347 72.6854 93.7663 71.6321 93.7663C71.6321 93.7663 71.6321 93.7663 71.6979 93.7663ZM66.8265 94.5563C69.1305 94.2271 71.6979 93.9638 73.6728 95.5437C73.1462 95.4121 72.5537 95.2804 71.9613 95.2146C71.9613 95.2146 71.9612 95.2146 72.0271 95.2146C71.3029 95.0829 70.513 95.0829 69.7888 95.0171C69.7888 95.0171 69.7888 95.0171 69.8547 95.0171C69.5913 94.9513 69.3939 95.0171 69.1305 95.0171C68.2747 95.0171 67.4848 94.7538 66.629 94.5563C66.6948 94.5563 66.7606 94.5563 66.8265 94.5563ZM72.7512 91.6597C72.4879 91.7914 72.2904 91.9889 72.0271 92.1864C72.0271 92.1864 72.0271 92.1864 71.9613 92.1864C70.5788 93.108 68.8672 93.7005 67.1556 93.503C67.6164 93.3713 68.0773 93.1738 68.4722 93.0422C69.4597 92.6472 70.513 92.4497 71.5663 92.0547C71.6321 92.0547 71.6321 91.9889 71.6979 91.9889C72.0271 91.8572 72.4221 91.6597 72.7512 91.5281C72.8829 91.4622 72.9487 91.4623 73.0804 91.3964C73.0145 91.4623 72.8829 91.5939 72.7512 91.6597ZM67.6823 92.9763C68.6039 92.1864 69.7888 91.4623 71.0396 91.3964C71.0396 91.3964 71.0396 91.3964 70.9738 91.3964C70.9738 91.3964 70.9738 91.3964 71.0396 91.3964C71.6979 91.3306 72.4221 91.2648 73.0804 91.1989C73.0145 91.1989 72.9487 91.2648 72.9487 91.2648C72.6196 91.3964 72.2904 91.5281 71.9613 91.6597C71.9613 91.6597 71.9612 91.6597 71.8954 91.6597C70.7763 92.1206 69.4597 92.2522 68.3406 92.7789C68.0773 92.8447 67.8798 92.9764 67.6164 93.0422C67.4848 93.108 67.3531 93.1738 67.2215 93.2397C67.4189 93.1738 67.5506 93.0422 67.6823 92.9763ZM80.7167 86.6566C81.4408 86.525 82.0991 86.4591 82.8233 86.4591C82.8233 86.4591 82.8233 86.4591 82.7574 86.4591C84.2057 86.4591 85.4565 87.2491 86.7073 87.8416C85.259 87.9074 83.9424 87.5124 82.5599 87.2491C81.5067 87.1174 80.3875 86.9858 79.3342 86.92C79.8609 86.8541 80.3217 86.7883 80.7167 86.6566ZM83.4816 83.6943C82.8233 84.4842 82.165 85.2742 81.1775 85.6692C81.1775 85.6692 81.1775 85.6692 81.2433 85.6692C80.7167 85.9983 80.1901 86.13 79.5976 86.3275C81.1775 85.6033 82.4283 84.3526 83.7449 83.2993C83.6791 83.4309 83.5474 83.5626 83.4816 83.6943ZM80.8484 84.6159C81.5067 83.9576 82.4941 83.8259 83.3499 83.4309C82.8233 83.8259 82.3625 84.2209 81.9016 84.6159C81.5725 84.8134 81.3092 85.0767 80.98 85.2742C80.8483 85.34 80.7167 85.4059 80.585 85.5375C79.9926 85.8667 79.4659 86.3933 78.8076 86.525C79.4659 85.9325 80.0584 85.1425 80.8484 84.6159ZM81.2433 74.9388C81.2433 74.873 81.2433 74.873 81.2433 74.9388C81.5725 74.1489 81.7041 73.2931 81.8358 72.5031C81.8358 72.7006 81.8358 72.8981 81.8358 73.0956C81.8358 73.0956 81.8358 73.0956 81.8358 73.1614C82.0991 75.1363 81.9016 77.3087 80.3217 78.757C80.0584 79.0861 79.6634 79.3495 79.3342 79.6128C79.3342 79.547 79.4001 79.4811 79.4001 79.4153C79.4001 79.3495 79.4001 79.3495 79.4659 79.2836C80.0584 77.8354 80.7825 76.4529 81.2433 74.9388ZM85.5881 78.362C86.9706 77.8354 87.7605 76.7162 88.748 75.7288C88.1555 77.2429 86.8389 78.2303 85.259 78.6253C85.259 78.6253 85.259 78.6253 85.1932 78.6253C85.3907 78.5595 85.4565 78.4278 85.5881 78.362ZM91.842 80.0736C90.6571 80.8636 89.2088 81.3902 87.8264 80.7319C87.6289 80.6002 87.4314 80.5344 87.1681 80.4027C87.1681 80.4027 87.1681 80.4027 87.1022 80.4027C86.7731 80.2711 86.4439 80.0078 86.1806 79.7444C88.1555 79.8103 90.1963 80.2711 92.1712 79.8103C92.1053 79.8761 91.9737 80.0078 91.842 80.0736ZM86.2464 79.4153C88.2872 78.9545 90.3279 78.6912 92.3028 79.6786C90.1963 80.0736 88.0239 79.6128 85.8515 79.4811C86.049 79.4811 86.1148 79.4811 86.2464 79.4153ZM85.4565 78.0987C85.9173 77.3745 86.4439 76.6504 87.1681 76.1896C87.1681 76.1896 87.1681 76.1896 87.2339 76.1896C87.6947 75.9263 88.1555 75.7946 88.6822 75.663C88.1555 76.0579 87.7605 76.5846 87.2997 77.1112C86.7731 77.7037 85.9831 77.9012 85.3248 78.4278C85.3248 78.2303 85.3907 78.1645 85.4565 78.0987ZM79.8609 75.5313C80.2559 74.4122 80.8483 73.4247 81.6383 72.5689C81.5066 73.3589 81.2433 74.2147 80.98 74.9388C80.5192 76.3213 79.7951 77.6379 79.3342 78.9545C79.3342 78.9545 79.3342 78.9545 79.3342 79.0203C79.2684 79.152 79.2684 79.2836 79.2026 79.3495C79.0051 78.0329 79.4001 76.7821 79.8609 75.5313ZM75.7136 73.8197C76.0427 74.1489 76.3719 74.478 76.6352 74.873C76.6352 74.873 76.6352 74.873 76.6352 74.8072C77.8202 76.0579 78.3468 77.7037 78.1493 79.4153C78.0835 79.152 77.9518 78.8886 77.886 78.5595C77.886 78.5595 77.886 78.5595 77.886 78.4937C77.6227 77.7037 77.3593 76.9796 76.9644 76.2554C76.8327 75.9263 76.6352 75.5313 76.4377 75.268C76.1744 74.7413 75.8452 74.2147 75.5819 73.6222C75.6478 73.688 75.7136 73.7539 75.7136 73.8197ZM77.9518 79.547C76.7669 78.6253 75.6478 78.0987 75.5819 76.3213C75.5161 75.7288 75.5819 75.0705 75.5819 74.478C75.5819 74.4122 75.5819 74.4122 75.5819 74.3464C75.5819 74.2805 75.5819 74.2805 75.5819 74.2147C75.5819 74.1489 75.5819 74.0172 75.5819 73.9514C75.5819 73.8855 75.5819 73.8197 75.5819 73.8197C75.6478 74.0172 75.7136 74.1489 75.7794 74.2805C76.1086 75.0705 76.5694 75.7946 76.9644 76.5846C77.2935 77.572 77.5568 78.5595 77.9518 79.547C78.0176 79.4811 77.9518 79.4811 77.9518 79.547C78.0176 79.547 78.0176 79.4811 77.9518 79.547C78.0176 79.547 78.0176 79.547 77.9518 79.547ZM86.3123 88.3024C85.654 88.6315 84.9957 88.829 84.3374 89.0265C82.2966 89.5532 80.3875 88.5657 79.0051 87.1174C80.3217 87.2491 81.6383 87.3149 82.9549 87.5783C84.1399 87.8416 85.259 88.1707 86.5098 88.1049C86.5756 88.1049 86.7073 88.1049 86.7731 88.1049C86.5756 88.1707 86.4439 88.2366 86.3123 88.3024Z" fill="white"/>
<path d="M7.71071 15.4938C7.97404 16.6129 9.02732 17.3371 9.55397 18.3245C9.68563 18.6537 9.81729 18.917 9.88312 19.2462C9.88312 19.312 9.88312 19.3778 9.88312 19.4436C9.88312 19.4436 9.88312 19.4436 9.88312 19.3778C9.94895 19.7728 9.88312 20.2336 9.88312 20.6286C9.88312 20.6286 9.88312 20.6286 9.88312 20.5628C9.75146 21.4844 9.6198 22.4718 9.22481 23.3276V23.2618C8.96149 23.6568 8.764 24.0518 8.56651 24.4468C8.56651 24.5126 8.50068 24.5126 8.50068 24.5784C8.43485 24.7101 8.30319 24.8417 8.23736 24.9734C8.23736 24.9734 8.23736 24.9734 8.23736 25.0392C6.19662 28.0016 4.35337 31.0956 2.64178 34.1897C2.70761 33.7288 2.64178 33.3339 2.64178 32.873C2.64178 32.6756 2.57595 32.4781 2.64178 32.2806C2.77344 31.8198 2.97092 31.4248 3.23425 31.0298C3.89255 29.6474 5.20916 28.6599 5.66997 27.2116C5.99912 26.29 5.86746 25.3026 6.06495 24.3151C6.06495 23.9859 6.32828 23.4593 6.06495 23.196C4.94584 23.8543 4.2217 25.2367 3.69506 26.4875C3.16841 27.7383 3.23425 29.1207 3.30008 30.3715C3.30008 30.4373 3.30008 30.5032 3.23425 30.5032C3.23425 30.5032 3.23425 30.5032 3.23425 30.569C3.10259 30.964 2.83926 31.2273 2.7076 31.5564C2.57594 29.8448 2.9051 28.1333 3.16842 26.4875C3.23425 26.2242 3.30008 25.9609 3.43174 25.6975C4.2217 23.591 5.47248 21.4844 4.88001 19.1803C4.81418 18.9828 4.74835 18.4562 4.48503 18.6537C3.36591 20.2994 1.25934 21.7477 2.24679 23.9859C1.98347 23.7885 1.12767 21.6161 0.930183 22.406C0.930183 22.406 0.930183 22.406 0.930183 22.3402C0.40354 23.7226 0.535201 25.3026 0.271879 26.7508C0.206049 27.9358 0.666866 29.0549 1.32517 30.0423C1.58849 30.5032 2.0493 30.8323 2.11513 31.359C2.18096 31.7539 2.31263 32.0831 2.31263 32.4781C2.31263 32.4781 2.31263 32.4781 2.31263 32.4122C2.31263 32.8072 2.44428 33.9922 2.11513 35.5063C1.91764 36.4279 1.58849 37.2837 1.39099 38.2053C0.996012 39.7194 0.732692 41.2335 0.601031 41.7602C0.601031 41.826 1.06184 42.0235 1.25934 41.826C1.25934 41.826 1.45683 40.7727 1.65432 39.6536C1.78598 38.9953 1.91764 38.4686 2.0493 38.0078C2.64177 35.7696 3.16842 34.453 4.15588 32.7414C5.73581 29.779 5.80164 30.0423 8.764 28.7257C8.82983 28.7257 8.89566 28.7257 8.89566 28.6599C8.96149 28.6599 9.02733 28.6599 9.09316 28.6599C9.15899 28.6599 9.29064 28.6599 9.35647 28.6599C9.81729 28.7916 10.4098 28.7916 10.7389 29.2524C11.0022 29.6474 11.3972 29.9765 11.6605 30.4373C12.1213 31.2931 13.043 31.5564 13.8329 31.9514C14.1621 32.0831 14.4254 32.2806 14.6887 32.4781C15.0837 32.873 15.4787 33.2022 15.8079 33.5972C15.9395 33.7947 16.2028 34.3213 16.3345 33.7947C16.5978 31.8856 14.8204 29.2524 12.9771 28.7257C11.463 28.0674 11.3314 28.9232 9.55397 28.3307C9.81729 28.1991 10.0806 28.1333 10.3439 28.0016C10.3439 28.0016 10.3439 28.0016 10.2781 28.0016C12.3847 26.9483 14.6887 28.3308 16.8611 27.8041C16.8611 27.8041 16.8611 27.8041 16.7953 27.8041C17.9803 27.5408 19.0994 26.9483 20.3501 26.8825C20.4818 26.5533 19.9552 26.5533 19.7577 26.4217C18.9677 25.9609 18.0461 25.8292 17.1245 25.7634C15.6762 25.7634 14.3596 26.2242 13.3063 27.2116C12.8455 27.475 12.253 27.2116 11.7922 27.4091C12.9113 26.8167 13.8988 26.0267 14.8862 25.3026C15.6104 25.1051 16.2687 24.6442 16.927 24.3151C17.1903 23.7226 15.742 24.2493 15.4787 24.1176C15.4787 24.1176 15.4787 24.1176 15.5445 24.1176C14.0963 23.7885 12.648 24.1834 11.3972 24.9734C10.2781 25.7634 9.94894 27.2116 8.96149 28.0674C8.89566 28.1333 8.82983 28.1333 8.764 28.1991C8.17153 28.5282 7.51323 28.8574 6.92075 29.0549C6.85492 29.0549 6.85492 29.0549 6.78909 29.0549C6.78909 29.0549 6.78909 29.0549 6.72326 29.0549C6.72326 29.0549 6.72325 29.0549 6.65742 29.0549C6.45993 29.1207 6.32828 29.1207 6.13079 29.1865V29.1207C6.65743 28.1333 7.31573 27.1458 7.97403 26.1583C9.88311 23.591 11.6605 20.6944 14.0304 18.5879C14.0304 18.5879 14.0963 18.5879 14.0963 18.522C14.5571 18.3904 15.1495 18.127 15.6104 18.2587C15.9395 18.522 16.3345 18.5879 16.6637 18.6537C17.6511 19.1145 17.8486 20.4311 18.7702 20.9577C20.1527 21.9452 21.9301 21.3527 23.51 21.6819C23.6417 21.6819 23.8392 21.7477 23.8392 21.6161C22.7859 20.1678 21.2059 18.8512 19.3627 18.5879C18.2436 18.3904 17.0586 18.8512 16.0712 18.1929C19.2969 18.2587 22.5225 17.4687 24.9583 15.2305C25.0899 15.0988 25.2874 14.9672 24.9583 14.9672C23.905 14.7697 22.7859 14.8355 21.7326 14.7697C20.5476 14.638 19.4285 15.0988 18.5069 15.8888C18.0461 16.218 17.5853 16.6788 17.2561 17.2054C17.1903 17.3371 17.0586 17.4029 16.9928 17.4687C16.3345 18.127 15.347 17.9954 14.5571 18.127C14.4254 18.127 14.2937 18.1929 14.0963 18.1929C15.6104 16.4155 17.2561 14.7039 19.0335 13.0581C20.021 12.2681 20.811 11.149 21.9959 10.6882C22.7859 10.3591 23.6417 10.1616 24.4975 10.0299C24.4975 10.0299 24.5633 10.0299 24.5633 10.0957L24.6291 10.1616C25.8799 11.0174 27.0648 12.1365 28.6448 12.2681C29.3689 12.4656 33.3846 11.149 30.7513 10.9515C26.9332 9.76659 26.1432 8.7133 21.9959 10.3591C22.1276 10.2274 22.2592 10.1616 22.3251 10.0299C22.3251 10.0299 22.3251 10.0299 22.3909 10.0299C24.0367 8.7133 25.7482 7.46252 27.4598 6.21174C27.6573 6.14591 27.9206 6.01425 28.184 6.01425C31.2122 6.67256 32.1996 6.67255 34.7012 4.63181C34.767 4.56598 34.8328 4.56598 34.8987 4.50015C34.9645 4.36849 34.767 4.30266 34.7012 4.36849C33.8454 4.43432 32.9896 4.171 32.1338 4.30266C31.0805 4.30266 30.0272 4.43432 29.1056 5.0268C30.6197 3.84185 30.9488 1.73528 31.7388 0.0895194C31.6071 -0.173802 31.3438 0.221177 31.2122 0.287007C30.0272 1.47195 28.5789 2.45941 28.2498 4.23683C27.5257 6.14591 25.6166 7.06754 24.0367 8.31832C24.7608 6.21174 26.3407 5.55344 26.3407 2.98605V3.05189C26.2749 2.59107 26.8674 -0.107975 25.8799 0.945311C25.8799 0.945311 25.8799 0.945312 25.9457 0.879482C24.7608 1.9986 23.3783 3.18355 23.905 5.0268C23.9708 5.48761 24.2341 5.94842 24.3 6.40923C24.1683 6.21174 24.1025 6.01425 23.9708 5.81676C23.6417 5.42178 23.4442 5.0268 23.3783 4.50015C23.1809 2.98605 22.5226 1.47195 21.6009 0.287007C21.5351 0.287007 21.5351 0.221178 21.4693 0.221178C21.3376 0.155348 21.0084 -0.173803 21.0084 0.155349C21.0743 0.28701 21.0084 0.418669 21.0084 0.55033C20.9426 1.73528 20.416 3.05188 21.0084 4.23683C21.4693 5.22429 22.5884 5.29012 23.4442 5.6851C23.7733 6.08008 24.1683 6.5409 24.1683 7.06754C23.9708 7.98916 23.3783 8.91079 22.6542 9.43743C20.6135 11.149 18.6386 12.9264 16.7295 14.8355C16.927 14.5064 17.0586 14.1772 17.1903 13.8481C18.2436 11.0832 21.2059 12.0706 21.7984 7.98916C21.9959 7.39669 21.3376 8.05499 21.1401 8.05499C19.8235 8.64747 18.5069 9.70075 18.3094 11.2148C18.3094 11.4782 18.1777 11.6757 18.1119 11.8732C18.0461 12.2023 17.7828 12.4656 17.5853 12.7289C17.9144 9.63492 19.0994 7.46252 17.6511 4.43432C17.6511 4.43432 17.6511 4.43432 17.6511 4.50015C17.4536 3.11771 16.5978 5.48761 16.2687 5.75093C15.0837 7.26503 15.6104 9.23994 16.6637 10.6882C17.3878 11.4123 17.3878 12.4656 17.0586 13.3873C16.9928 13.5189 16.9928 13.6506 16.927 13.7164C16.4003 15.2963 15.2154 16.4155 14.1621 17.6662C12.7797 19.312 11.3314 20.9577 10.0148 22.6693C10.0806 22.4718 10.0806 22.2744 10.1464 22.011V21.9452C10.2781 21.1552 10.2781 20.3653 10.3439 19.5753C10.2781 18.917 10.6073 18.4562 11.0022 18.0612C11.1997 17.8637 11.3972 17.7321 11.5289 17.6004C12.1214 16.9421 12.7797 16.3496 13.1746 15.5597C13.2405 15.0988 14.7546 12.6631 14.0963 12.5973C12.648 13.5847 11.1339 14.638 10.5414 16.4155C11.0681 14.5064 10.6731 12.5315 9.68563 10.8199C9.4223 10.4907 9.4223 9.83241 8.96149 9.70075C7.9082 11.2807 6.98658 13.5189 7.71071 15.4938ZM21.2718 0.55033C21.9301 2.32775 21.9301 3.64436 23.2467 5.22429C21.6668 4.96096 20.6793 3.84185 21.0084 2.19609C21.1401 1.60362 21.2718 1.07697 21.2718 0.55033ZM23.3125 4.76348C22.3251 3.71019 22.1276 2.26192 21.7326 0.879482C22.3251 1.80111 22.7859 2.85439 23.115 3.90768C23.1809 4.171 23.1809 4.43432 23.3125 4.69765V4.76348ZM30.6197 1.53779C30.2905 1.9986 29.9614 2.39358 29.6981 2.92022C29.3689 3.38104 29.1714 3.97351 28.7764 4.43432C28.7106 4.56598 28.5789 4.69764 28.4473 4.8293C28.6448 4.10517 28.9081 3.31521 29.3689 2.72273C29.7639 2.26192 30.2247 1.93277 30.6197 1.53779ZM28.4473 5.22429C28.7106 4.96096 28.9081 4.63181 29.1056 4.30266C29.5664 3.64436 29.9614 2.92022 30.3564 2.26192C30.4222 2.19609 30.4222 2.13026 30.488 2.06443C30.2247 2.78856 29.9614 3.5127 29.5006 4.10517C29.2373 4.50015 28.8423 4.89513 28.4473 5.22429ZM34.2404 4.63181C32.5946 5.29012 30.8172 4.82931 29.1056 5.42178C30.5539 4.69764 32.1996 4.43432 33.8454 4.56598C33.977 4.56598 34.1087 4.63181 34.2404 4.63181ZM28.3156 5.88259C29.3031 5.6851 30.3564 5.35595 31.4097 5.35595C32.3313 5.29012 33.3187 5.35595 34.1745 4.8293C33.1871 5.48761 32.1996 6.14591 30.9488 6.21174C30.9488 6.21174 30.9488 6.21174 30.883 6.21174C30.0272 6.21174 29.2372 5.88259 28.4473 5.94842C28.3815 5.88259 28.3156 5.88259 28.3156 5.88259ZM30.6855 11.3465C28.9739 11.3465 27.5257 10.2274 25.9457 9.96408C27.5257 9.89825 28.7764 10.8857 30.2247 11.2807C30.2905 11.2807 30.2905 11.2807 30.3564 11.3465C30.488 11.3465 30.5539 11.3465 30.6855 11.3465ZM25.2874 10.0957C27.2623 10.3591 28.9739 11.8732 30.9488 11.544C29.9614 11.8732 28.9739 12.2023 27.9865 11.8073C27.0648 11.4782 26.2749 10.8857 25.5508 10.2932C25.4191 10.1616 25.3533 10.0957 25.2874 10.0957ZM25.9457 1.53779C25.0899 2.85439 24.8266 4.43432 24.6291 5.94842C24.3658 4.96096 23.9708 3.84185 24.5633 2.92022C24.9583 2.39358 25.4849 1.9986 25.9457 1.53779ZM24.8924 6.21174C25.1558 4.69764 25.2216 3.18355 26.0116 1.80111C26.0116 3.18355 25.8799 4.56598 25.2216 5.75093C25.0899 5.94842 24.9583 6.08008 24.8924 6.21174ZM13.438 27.3433C13.7013 27.1458 13.9646 26.8825 14.2279 26.7508C14.2937 26.7508 14.3596 26.685 14.4254 26.6192C16.0053 25.8292 18.0461 25.7634 19.626 26.5533C17.7169 26.9483 16.0053 27.9358 13.9646 27.3433C13.7671 27.4091 13.5696 27.4091 13.438 27.3433ZM15.4129 24.3809C15.2154 24.3809 15.0837 24.4468 14.8862 24.5126C13.043 24.9734 11.5289 26.0925 10.1464 27.2775C10.0806 27.3433 9.94895 27.475 9.81728 27.5408C10.4756 26.3558 11.1997 25.1051 12.648 24.7101C13.3721 24.3809 14.2279 24.2493 15.0179 24.4468C15.1496 24.3809 15.2812 24.3809 15.4129 24.3809ZM10.2781 27.6724C10.1464 27.7383 10.0148 27.8041 9.81728 27.8699C11.5947 26.4875 13.438 25.0392 15.6762 24.5126C14.5571 24.9076 13.7671 25.7634 12.7797 26.3558C12.0555 26.8825 11.2656 27.4091 10.2781 27.6724ZM16.0712 33.0047C16.0712 33.0705 16.0712 33.2022 16.0712 33.268C15.9395 32.8072 15.742 32.2806 15.2812 31.9514C15.1495 31.8198 15.0179 31.7539 14.9521 31.6223C14.9521 31.6223 14.9521 31.6223 14.8862 31.5564C14.8862 31.5564 14.8862 31.5564 14.8204 31.4906C13.7013 30.3715 12.5163 29.3182 11.0022 28.7916C12.253 28.4624 13.8329 29.0549 14.5571 30.1082C14.6887 30.3057 14.8204 30.4373 14.9521 30.6348C15.4129 31.2273 15.8737 31.9514 15.9395 32.7414C16.0712 32.9389 16.0712 33.0047 16.0712 33.0047ZM11.0022 29.2524C12.1872 29.7132 13.3063 30.3715 14.2279 31.2931C14.6887 31.8198 15.4129 32.1489 15.6762 32.8072C15.6762 32.8072 15.6762 32.873 15.742 32.873C15.8078 33.0047 15.8737 33.2022 15.9395 33.3339C15.4129 32.8072 14.8862 32.2806 14.2938 31.8198C13.5038 31.3589 12.5163 31.2273 11.9897 30.4373C11.858 30.3057 11.7922 30.174 11.6605 30.0423C11.463 29.7132 11.1997 29.5157 11.0022 29.2524ZM0.996018 22.6693C1.25934 23.1301 1.25933 23.591 1.39099 24.1176C1.52265 25.1709 1.65432 26.1583 1.65432 27.2116C1.58849 28.3966 1.91764 29.4499 2.24679 30.569C2.18096 30.4373 2.11513 30.3715 1.98347 30.3057C1.98347 30.3057 1.98347 30.3057 1.98347 30.2398C0.271883 28.4624 0.601033 26.29 0.798524 23.9859C0.798524 23.9859 0.798524 23.9859 0.798524 24.0518C0.798524 23.7885 0.798528 23.5251 0.864359 23.2618C0.864359 23.0643 0.930187 22.8668 0.996018 22.6693ZM4.4192 18.9828V19.0487C4.4192 19.1145 4.41919 19.1803 4.35336 19.2462C4.35336 19.2462 4.35336 19.2462 4.35336 19.312C4.35336 19.312 4.35336 19.312 4.35336 19.3778C4.35336 19.3778 4.35336 19.3778 4.35336 19.4436C4.35336 19.5095 4.35336 19.5095 4.35336 19.5753C4.28753 19.9703 4.09004 20.3653 4.09004 20.7603C4.09004 20.7603 4.09004 20.7603 4.09004 20.6944C4.09004 20.8919 3.95838 21.0894 3.89255 21.2869C3.76089 21.5502 3.69506 21.8135 3.5634 22.1427C3.03676 23.3276 3.03676 24.5784 2.97093 25.8292C1.91764 22.3402 1.72015 22.2744 4.15588 19.3778C4.22171 19.2462 4.35336 19.1145 4.4192 18.9828ZM3.16842 25.3684C3.16842 24.3151 3.30007 23.2618 3.69506 22.2744C3.82672 22.011 3.95838 21.6819 4.02421 21.4186C4.28753 20.8261 4.41919 20.1678 4.55085 19.5753C4.81418 21.6161 3.82673 23.4593 3.16842 25.3026V25.3684ZM2.37845 30.3057C2.18096 29.5157 1.91764 28.6599 1.91764 27.8041C1.91764 27.5408 1.91764 27.3433 1.91764 27.08C1.91764 27.08 1.91764 27.08 1.91764 27.1458C1.85181 26.4217 1.91764 25.6317 1.72015 24.9076C1.72015 24.9076 1.72015 24.9076 1.72015 24.9734C1.65432 24.3809 1.52265 23.8543 1.39099 23.2618C3.03675 25.2367 2.7076 27.7383 2.37845 30.1082C2.37845 30.174 2.37845 30.2398 2.37845 30.3057ZM5.60414 23.8543C5.53831 23.9859 5.53832 24.0518 5.47249 24.1834C5.27499 24.5126 5.14333 24.9076 5.01166 25.2367C5.01166 25.3026 4.94584 25.3026 4.94584 25.3684C4.55086 26.3558 4.28754 27.4091 3.95838 28.4624C3.82672 28.9232 3.62923 29.384 3.49757 29.779C3.30008 28.0674 3.89256 26.4217 4.81418 24.9734C4.81418 24.9734 4.81418 24.9734 4.81418 24.9076C4.94584 24.6443 5.14333 24.4468 5.34082 24.1834C5.34082 24.0518 5.47248 23.9859 5.60414 23.8543ZM3.69506 29.6474C3.76089 29.5157 3.82672 29.384 3.89255 29.2524C4.02421 28.9891 4.09005 28.7916 4.15588 28.5282C4.68252 27.4091 4.81418 26.1583 5.27499 24.9734C5.27499 24.9734 5.27499 24.9734 5.27499 24.9076C5.40665 24.5784 5.53831 24.2493 5.66997 23.9201C5.66997 23.8543 5.7358 23.7885 5.7358 23.7885C5.66997 24.4468 5.60414 25.1709 5.53831 25.8292C5.53831 25.8292 5.53831 25.8292 5.53831 25.895C5.53831 25.895 5.53831 25.895 5.53831 25.8292C5.53831 27.08 4.81418 28.2649 3.95838 29.1865C3.89255 29.384 3.76089 29.5157 3.69506 29.6474ZM10.0806 17.6004C9.94895 16.5471 9.88312 15.428 9.75146 14.3747C9.48814 12.9923 9.02732 11.6098 9.15898 10.2274C9.75145 11.4782 10.5414 12.7289 10.5414 14.1772C10.5414 14.1772 10.5414 14.1772 10.5414 14.1114C10.5414 14.8355 10.4756 15.5597 10.3439 16.218C10.1464 16.6788 10.0806 17.1396 10.0806 17.6004ZM13.7013 13.1898C12.648 14.5722 11.3972 15.823 10.6731 17.3371C10.8706 16.8104 11.0022 16.218 11.3314 15.6913C11.3314 15.6913 11.3314 15.6913 11.3314 15.7571C11.7264 14.7697 12.5163 14.1114 13.3063 13.4531C13.3721 13.3873 13.5038 13.3214 13.7013 13.1898ZM10.4756 18.2587C10.6072 17.6004 11.1339 17.0079 11.463 16.4813C11.5289 16.3496 11.6605 16.218 11.7264 16.0863C11.9239 15.7571 12.1872 15.4938 12.3847 15.1647C12.7797 14.7039 13.1746 14.1772 13.5696 13.7164C13.1746 14.5064 12.9771 15.4938 12.3847 16.218C11.858 16.9421 11.0681 17.4687 10.4756 18.2587ZM21.9959 15.7571C20.4818 16.218 19.0994 16.8763 17.6511 17.4687C17.5853 17.4687 17.5853 17.4687 17.5194 17.5346C17.4536 17.5346 17.3878 17.6004 17.322 17.6004C17.6511 17.2712 17.8486 16.9421 18.1777 16.6129C19.626 15.0988 21.7984 14.8355 23.7733 15.0988C23.7733 15.0988 23.7733 15.0988 23.8392 15.0988C24.0366 15.0988 24.2341 15.0988 24.4316 15.0988C23.6417 15.2963 22.8517 15.428 21.9959 15.7571C22.0617 15.7571 22.0617 15.7571 22.0617 15.7571C22.0617 15.6913 22.0617 15.7571 21.9959 15.7571ZM18.6386 11.3465C18.5727 11.4782 18.4411 11.6098 18.3752 11.6757C18.3752 11.6757 18.3752 11.6757 18.3752 11.6098C18.7702 10.0299 19.7577 8.7133 21.2718 8.12082C20.2185 9.17411 19.1652 10.0299 18.6386 11.3465ZM17.1245 4.69765C16.7295 6.67256 17.1245 8.7133 17.1903 10.6882C16.9928 10.3591 16.7295 10.0957 16.532 9.76658C16.532 9.76658 16.532 9.76658 16.532 9.70075C16.4662 9.50326 16.3345 9.23994 16.2028 9.04245C15.4787 7.66001 16.0053 6.21174 16.8611 5.0268C16.9928 4.96097 17.0586 4.82931 17.1245 4.69765ZM17.4536 11.0832C17.3878 8.97662 16.927 6.80421 17.2561 4.63181C18.2436 6.60672 17.9802 8.64747 17.5194 10.6882C17.5194 10.8199 17.4536 10.9515 17.4536 11.0832ZM18.6386 11.6757C19.0994 11.0832 19.3627 10.2932 19.9552 9.70075C20.416 9.23994 21.0085 8.91079 21.4034 8.31832C21.2718 8.84496 21.1401 9.30577 20.8768 9.76658C20.8768 9.76658 20.8768 9.76658 20.8768 9.83241C20.416 10.5565 19.6918 11.0832 18.9677 11.544C18.8361 11.544 18.7044 11.6098 18.6386 11.6757ZM17.5853 17.7321C17.7169 17.7321 17.8486 17.6662 17.9144 17.6004C17.9144 17.6004 17.9144 17.6004 17.9803 17.6004C19.3627 17.0738 20.6135 16.3496 21.9959 15.9546C22.7859 15.6913 23.5758 15.4938 24.3658 15.2963C23.51 16.0863 22.4567 16.6788 21.4034 17.0738C20.2185 17.5346 18.9019 17.9954 17.5853 17.7321ZM23.2467 21.3527C22.72 21.0894 22.1934 20.7603 21.6009 20.4969C21.2718 20.2994 20.9426 20.1678 20.6135 19.9703C19.8893 19.5753 19.0994 19.312 18.3752 19.0487C18.3752 19.0487 18.3752 19.0487 18.3094 19.0487C18.0461 18.9828 17.7828 18.8512 17.4536 18.7853C19.1652 18.5879 20.811 19.1803 22.0617 20.2994C22.0617 20.2994 22.0617 20.2994 21.9959 20.2994C22.3251 20.5628 22.72 20.8919 23.0492 21.2211C23.1809 21.2869 23.2467 21.2869 23.2467 21.3527ZM17.322 18.917C17.3878 18.917 17.3878 18.917 17.4536 18.9828C17.4536 18.9828 17.4536 18.9828 17.5194 18.9828C18.4411 19.3778 19.4285 19.707 20.416 20.1019C21.2059 20.4969 21.9301 20.8919 22.72 21.2869C22.8517 21.3527 23.0492 21.4844 23.1809 21.4844C23.115 21.4844 23.0492 21.4844 23.0492 21.4844C22.9834 21.4844 22.8517 21.4844 22.7859 21.4844C22.72 21.4844 22.72 21.4844 22.6542 21.4844C22.5884 21.4844 22.5884 21.4844 22.5226 21.4844C21.9301 21.4186 21.2718 21.4844 20.6793 21.4844C18.9019 21.4186 18.3752 20.2994 17.4536 19.1145C17.3878 18.9828 17.3878 18.917 17.322 18.917ZM8.89566 10.2932C8.89566 10.3591 8.89566 10.4907 8.89566 10.5565C8.764 11.7415 9.15899 12.9264 9.42231 14.1114C9.68563 15.428 9.68563 16.7446 9.88312 18.0612C8.43485 16.6788 7.44739 14.7039 7.97403 12.7289C8.17152 12.0706 8.43485 11.3465 8.69817 10.754C8.764 10.4907 8.82983 10.3591 8.89566 10.2932Z" fill="white"/>
<path d="M77.0297 20.0363C76.5031 19.5097 76.5031 18.588 77.0297 17.9956C77.5564 17.4689 78.478 17.4689 79.0705 17.9956C79.663 18.5222 79.5971 19.4438 79.0705 20.0363C78.478 20.563 77.5564 20.563 77.0297 20.0363ZM78.7413 18.2589C78.3463 17.8639 77.6881 17.8639 77.2272 18.2589C76.8323 18.6539 76.8323 19.3122 77.2272 19.773C77.6222 20.168 78.2805 20.168 78.7413 19.773C79.1363 19.378 79.1363 18.6539 78.7413 18.2589Z" fill="white"/>
<path d="M15.8735 81.1266C15.3469 80.6 15.3469 79.6784 15.8735 79.0859C16.4001 78.5593 17.3218 78.5593 17.9142 79.0859C18.4409 79.6125 18.4409 80.5342 17.9142 81.1266C17.3218 81.7191 16.466 81.7191 15.8735 81.1266ZM17.6509 79.4151C17.2559 79.0201 16.5976 79.0201 16.1368 79.4151C15.7418 79.81 15.7418 80.4683 16.1368 80.9292C16.5318 81.3241 17.1901 81.3241 17.6509 80.9292C18.0459 80.4683 18.0459 79.81 17.6509 79.4151Z" fill="white"/>
</svg>
