<svg width="56" height="56" viewBox="0 0 56 56" fill="none" xmlns="http://www.w3.org/2000/svg">
<rect width="56" height="56" rx="28" fill="#E9496D"/>
<path d="M19.9062 19.0625C18.7874 19.0625 17.7143 19.507 16.9231 20.2981C16.132 21.0893 15.6875 22.1624 15.6875 23.2812V24.125H39.3125V23.2812C39.3125 22.1624 38.868 21.0893 38.0769 20.2981C37.2857 19.507 36.2126 19.0625 35.0938 19.0625H19.9062ZM39.3125 25.8125H15.6875V31.7188C15.6875 32.8376 16.132 33.9107 16.9231 34.7019C17.7143 35.493 18.7874 35.9375 19.9062 35.9375H35.0938C36.2126 35.9375 37.2857 35.493 38.0769 34.7019C38.868 33.9107 39.3125 32.8376 39.3125 31.7188V25.8125ZM31.7188 30.875H35.0938C35.3175 30.875 35.5321 30.9639 35.6904 31.1221C35.8486 31.2804 35.9375 31.495 35.9375 31.7188C35.9375 31.9425 35.8486 32.1571 35.6904 32.3154C35.5321 32.4736 35.3175 32.5625 35.0938 32.5625H31.7188C31.495 32.5625 31.2804 32.4736 31.1221 32.3154C30.9639 32.1571 30.875 31.9425 30.875 31.7188C30.875 31.495 30.9639 31.2804 31.1221 31.1221C31.2804 30.9639 31.495 30.875 31.7188 30.875Z" fill="white"/>
</svg>
