<svg width="56" height="56" viewBox="0 0 56 56" fill="none" xmlns="http://www.w3.org/2000/svg">
<rect width="56" height="56" rx="28" fill="#E9496D"/>
<path d="M16.625 28C16.625 24.9832 17.8234 22.0899 19.9567 19.9567C22.0899 17.8234 24.9832 16.625 28 16.625C31.0168 16.625 33.9101 17.8234 36.0433 19.9567C38.1766 22.0899 39.375 24.9832 39.375 28C39.375 31.0168 38.1766 33.9101 36.0433 36.0433C33.9101 38.1766 31.0168 39.375 28 39.375C24.9832 39.375 22.0899 38.1766 19.9567 36.0433C17.8234 33.9101 16.625 31.0168 16.625 28ZM31.029 21.734C30.8727 21.5835 30.6642 21.4994 30.4472 21.4994C30.2303 21.4994 30.0218 21.5835 29.8655 21.734C29.7893 21.8075 29.7287 21.8956 29.6874 21.9931C29.646 22.0905 29.6247 22.1953 29.6247 22.3011C29.6247 22.407 29.646 22.5118 29.6874 22.6092C29.7287 22.7066 29.7893 22.7947 29.8655 22.8682C30.5553 23.5331 31.104 24.3302 31.4788 25.212C31.8536 26.0937 32.0468 27.0419 32.0468 28C32.0468 28.9581 31.8536 29.9063 31.4788 30.788C31.104 31.6698 30.5553 32.4669 29.8655 33.1318C29.7893 33.2053 29.7287 33.2934 29.6874 33.3908C29.646 33.4882 29.6247 33.593 29.6247 33.6989C29.6247 33.8047 29.646 33.9095 29.6874 34.007C29.7287 34.1044 29.7893 34.1925 29.8655 34.266C30.0218 34.4165 30.2303 34.5006 30.4472 34.5006C30.6642 34.5006 30.8727 34.4165 31.029 34.266C31.8714 33.4542 32.5414 32.481 32.9991 31.4043C33.4568 30.3277 33.6927 29.1699 33.6927 28C33.6927 26.8301 33.4568 25.6723 32.9991 24.5957C32.5414 23.519 31.8714 22.5458 31.029 21.734ZM27.7465 23.3655C27.6728 23.289 27.5845 23.2282 27.4868 23.1866C27.389 23.1451 27.2839 23.1237 27.1777 23.1237C27.0716 23.1237 26.9665 23.1451 26.8687 23.1866C26.771 23.2282 26.6827 23.289 26.609 23.3655C26.4581 23.5216 26.3737 23.7302 26.3737 23.9472C26.3737 24.1643 26.4581 24.3729 26.609 24.529C27.5095 25.4594 28.0129 26.7035 28.0129 27.9984C28.0129 29.2932 27.5095 30.5373 26.609 31.4677C26.4581 31.6238 26.3737 31.8324 26.3737 32.0495C26.3737 32.2666 26.4581 32.4752 26.609 32.6313C26.6827 32.7077 26.771 32.7686 26.8687 32.8101C26.9665 32.8517 27.0716 32.8731 27.1777 32.8731C27.2839 32.8731 27.389 32.8517 27.4868 32.8101C27.5845 32.7686 27.6728 32.7077 27.7465 32.6313C30.2425 30.0719 30.2425 25.9249 27.7465 23.3655ZM23.3492 24.9986C23.2026 25.1649 23.1216 25.379 23.1216 25.6007C23.1216 25.8224 23.2026 26.0365 23.3492 26.2028C24.2479 27.194 24.2479 28.8044 23.3492 29.7972C23.203 29.9634 23.1223 30.1772 23.1223 30.3985C23.1223 30.6198 23.203 30.8336 23.3492 30.9997C23.417 31.0779 23.5007 31.1405 23.5948 31.1835C23.6888 31.2264 23.791 31.2487 23.8944 31.2487C23.9978 31.2487 24.1 31.2264 24.1941 31.1835C24.2882 31.1405 24.3719 31.0779 24.4396 30.9997C25.9427 29.3422 25.9427 26.6561 24.4396 24.9986C24.3719 24.9208 24.2883 24.8583 24.1943 24.8156C24.1004 24.7728 23.9984 24.7506 23.8952 24.7506C23.7921 24.7506 23.6901 24.7728 23.5962 24.8156C23.5022 24.8583 23.417 24.9208 23.3492 24.9986Z" fill="white"/>
</svg>
