<svg width="56" height="56" viewBox="0 0 56 56" fill="none" xmlns="http://www.w3.org/2000/svg">
<rect width="56" height="56" rx="28" fill="#E9496D"/>
<path fill-rule="evenodd" clip-rule="evenodd" d="M19 19C18.2044 19 17.4413 19.2985 16.8787 19.8299C16.3161 20.3612 16 21.0819 16 21.8333V27.5C16 28.2514 16.3161 28.9721 16.8787 29.5035C17.4413 30.0348 18.2044 30.3333 19 30.3333V24.8333C19 23.1765 20.3431 21.8333 22 21.8333H34C34 21.0819 33.6839 20.3612 33.1213 19.8299C32.5587 19.2985 31.7956 19 31 19H19ZM22 27.5C22 26.7486 22.3161 26.0279 22.8787 25.4965C23.4413 24.9652 24.2044 24.6667 25 24.6667H37C37.7957 24.6667 38.5587 24.9652 39.1213 25.4965C39.6839 26.0279 40 26.7486 40 27.5V33.1667C40 33.9181 39.6839 34.6388 39.1213 35.1701C38.5587 35.7015 37.7957 36 37 36H25C24.2044 36 23.4413 35.7015 22.8787 35.1701C22.3161 34.6388 22 33.9181 22 33.1667V27.5ZM31 33.1667C31.7956 33.1667 32.5587 32.8682 33.1213 32.3368C33.6839 31.8054 34 31.0848 34 30.3333C34 29.5819 33.6839 28.8612 33.1213 28.3299C32.5587 27.7985 31.7956 27.5 31 27.5C30.2044 27.5 29.4413 27.7985 28.8787 28.3299C28.3161 28.8612 28 29.5819 28 30.3333C28 31.0848 28.3161 31.8054 28.8787 32.3368C29.4413 32.8682 30.2044 33.1667 31 33.1667Z" fill="white"/>
</svg>
