<svg width="56" height="56" viewBox="0 0 56 56" fill="none" xmlns="http://www.w3.org/2000/svg">
<rect width="56" height="56" rx="28" fill="#E9496D"/>
<path fill-rule="evenodd" clip-rule="evenodd" d="M36.0898 18.6666C36.0898 18.0478 35.844 17.4543 35.4064 17.0167C34.9688 16.5791 34.3753 16.3333 33.7565 16.3333H22.0898C21.471 16.3333 20.8775 16.5791 20.4399 17.0167C20.0023 17.4543 19.7565 18.0478 19.7565 18.6666V37.3333C19.7565 37.9522 20.0023 38.5456 20.4399 38.9832C20.8775 39.4208 21.471 39.6666 22.0898 39.6666H33.7565C34.3753 39.6666 34.9688 39.4208 35.4064 38.9832C35.844 38.5456 36.0898 37.9522 36.0898 37.3333V18.6666ZM22.0898 32.6666V19.8333H33.7565V32.6666H22.0898ZM27.9232 33.8333C28.2326 33.8333 28.5293 33.9562 28.7481 34.175C28.9669 34.3938 29.0898 34.6906 29.0898 35C29.0898 35.3094 28.9669 35.6061 28.7481 35.8249C28.5293 36.0437 28.2326 36.1666 27.9232 36.1666H27.9115C27.6021 36.1666 27.3053 36.0437 27.0866 35.8249C26.8678 35.6061 26.7448 35.3094 26.7448 35C26.7448 34.6906 26.8678 34.3938 27.0866 34.175C27.3053 33.9562 27.6021 33.8333 27.9115 33.8333H27.9232Z" fill="white"/>
</svg>
