<svg width="39" height="39" viewBox="0 0 39 39" fill="none" xmlns="http://www.w3.org/2000/svg">
<path d="M26.4159 24.4537L25.5312 25.3863C25.5312 25.3863 23.4254 27.6016 17.6796 21.5528C11.9338 15.5039 14.0396 13.2886 14.0396 13.2886L14.5957 12.6998C15.9705 11.2544 16.1007 8.93207 14.901 7.23559L12.451 3.77056C10.9655 1.67054 8.09746 1.3926 6.39608 3.18379L3.34332 6.39558C2.50138 7.285 1.9375 8.43383 2.00555 9.71032C2.18055 12.9777 3.57665 20.0045 11.3622 28.2028C19.6202 36.8952 27.3687 37.2411 30.5362 36.9282C31.5395 36.8294 32.4106 36.2899 33.1126 35.5488L35.8737 32.6417C37.7403 30.6796 37.2153 27.3134 34.8276 25.9402L31.1137 23.801C29.5465 22.9013 27.6409 23.1648 26.4159 24.4537Z" fill="#E9496D"/>
</svg>
