<svg width="45" height="44" viewBox="0 0 45 44" fill="none" xmlns="http://www.w3.org/2000/svg">
<rect width="45" height="44" rx="22" fill="#E9496D"/>
<path d="M32.4001 11.5466C31.1775 10.3121 29.7214 9.3332 28.1167 8.66706C26.5121 8.00092 24.7908 7.66082 23.0534 7.66658C15.7734 7.66658 9.84007 13.5999 9.84007 20.8799C9.84007 23.2132 10.4534 25.4799 11.6001 27.4799L9.7334 34.3332L16.7334 32.4932C18.6667 33.5466 20.8401 34.1066 23.0534 34.1066C30.3334 34.1066 36.2667 28.1732 36.2667 20.8932C36.2667 17.3599 34.8934 14.0399 32.4001 11.5466ZM23.0534 31.8666C21.0801 31.8666 19.1467 31.3332 17.4534 30.3332L17.0534 30.0932L12.8934 31.1866L14.0001 27.1332L13.7334 26.7199C12.6368 24.9693 12.0546 22.9456 12.0534 20.8799C12.0534 14.8266 16.9867 9.89324 23.0401 9.89324C25.9734 9.89324 28.7334 11.0399 30.8001 13.1199C31.8236 14.1384 32.6346 15.35 33.1862 16.6843C33.7378 18.0187 34.019 19.4494 34.0134 20.8932C34.0401 26.9466 29.1067 31.8666 23.0534 31.8666ZM29.0801 23.6532C28.7467 23.4932 27.1201 22.6932 26.8267 22.5732C26.5201 22.4666 26.3067 22.4132 26.0801 22.7332C25.8534 23.0666 25.2267 23.8132 25.0401 24.0266C24.8534 24.2532 24.6534 24.2799 24.3201 24.1066C23.9867 23.9466 22.9201 23.5866 21.6667 22.4666C20.6801 21.5866 20.0267 20.5066 19.8267 20.1732C19.6401 19.8399 19.8001 19.6666 19.9734 19.4932C20.1201 19.3466 20.3067 19.1066 20.4667 18.9199C20.6267 18.7332 20.6934 18.5866 20.8001 18.3732C20.9067 18.1466 20.8534 17.9599 20.7734 17.7999C20.6934 17.6399 20.0267 16.0132 19.7601 15.3466C19.4934 14.7066 19.2134 14.7866 19.0134 14.7732H18.3734C18.1467 14.7732 17.8001 14.8532 17.4934 15.1866C17.2001 15.5199 16.3467 16.3199 16.3467 17.9466C16.3467 19.5732 17.5334 21.1466 17.6934 21.3599C17.8534 21.5866 20.0267 24.9199 23.3334 26.3466C24.1201 26.6932 24.7334 26.8932 25.2134 27.0399C26.0001 27.2932 26.7201 27.2532 27.2934 27.1732C27.9334 27.0799 29.2534 26.3732 29.5201 25.5999C29.8001 24.8266 29.8001 24.1732 29.7067 24.0266C29.6134 23.8799 29.4134 23.8132 29.0801 23.6532Z" fill="white"/>
</svg>
