<svg width="45" height="44" viewBox="0 0 45 44" fill="none" xmlns="http://www.w3.org/2000/svg">
<rect width="45" height="44" rx="22" fill="#E9496D"/>
<path d="M22.0012 9C18.4706 9 18.0275 9.01547 16.6409 9.07852C15.2569 9.14196 14.3122 9.36101 13.4857 9.68249C12.6305 10.0145 11.9052 10.4587 11.1827 11.1815C10.4595 11.9042 10.0153 12.6294 9.68224 13.4842C9.35984 14.311 9.14053 15.2561 9.07826 16.6394C9.01625 18.0261 9 18.4694 9 22C9 25.5306 9.0156 25.9724 9.07852 27.3589C9.14222 28.7429 9.36127 29.6876 9.6825 30.5141C10.0148 31.3693 10.459 32.0945 11.1818 32.8171C11.9042 33.5402 12.6295 33.9855 13.484 34.3175C14.3112 34.639 15.256 34.858 16.6397 34.9215C18.0264 34.9845 18.4692 35 21.9996 35C25.5305 35 25.9723 34.9845 27.3589 34.9215C28.7428 34.858 29.6886 34.639 30.5158 34.3175C31.3705 33.9855 32.0948 33.5402 32.817 32.8171C33.5402 32.0945 33.9843 31.3693 34.3175 30.5145C34.637 29.6876 34.8565 28.7426 34.9215 27.3592C34.9837 25.9726 35 25.5306 35 22C35 18.4694 34.9837 18.0263 34.9215 16.6396C34.8565 15.2557 34.637 14.3111 34.3175 13.4846C33.9843 12.6294 33.5402 11.9042 32.817 11.1815C32.094 10.4585 31.3708 10.0142 30.515 9.68262C29.6862 9.36101 28.741 9.14183 27.357 9.07852C25.9703 9.01547 25.5288 9 21.9971 9H22.0012ZM20.8349 11.3427C21.1811 11.3422 21.5674 11.3427 22.0012 11.3427C25.4723 11.3427 25.8836 11.3552 27.2543 11.4175C28.5218 11.4754 29.2098 11.6872 29.668 11.8652C30.2748 12.1007 30.7073 12.3824 31.162 12.8376C31.617 13.2926 31.8986 13.7258 32.1348 14.3325C32.3128 14.7901 32.5248 15.4781 32.5825 16.7456C32.6448 18.116 32.6583 18.5276 32.6583 21.997C32.6583 25.4664 32.6448 25.8781 32.5825 27.2484C32.5245 28.5159 32.3128 29.2039 32.1348 29.6616C31.8992 30.2683 31.617 30.7003 31.162 31.155C30.707 31.61 30.275 31.8916 29.668 32.1273C29.2103 32.306 28.5218 32.5173 27.2543 32.5753C25.8839 32.6375 25.4723 32.6511 22.0012 32.6511C18.5299 32.6511 18.1185 32.6375 16.7481 32.5753C15.4806 32.5168 14.7927 32.305 14.334 32.127C13.7274 31.8913 13.294 31.6098 12.839 31.1548C12.384 30.6998 12.1024 30.2675 11.8662 29.6606C11.6883 29.2028 11.4762 28.5149 11.4185 27.2474C11.3562 25.877 11.3438 25.4654 11.3438 21.9938C11.3438 18.5221 11.3562 18.1128 11.4185 16.7423C11.4765 15.4748 11.6883 14.7869 11.8662 14.3286C12.1019 13.7219 12.384 13.2887 12.8392 12.8337C13.2943 12.3787 13.7274 12.097 14.3342 11.8609C14.7924 11.6821 15.4806 11.4709 16.7481 11.4126C17.9474 11.3584 18.4121 11.3422 20.8349 11.3395V11.3427ZM28.9406 13.5012C28.0793 13.5012 27.3806 14.1993 27.3806 15.0607C27.3806 15.9219 28.0793 16.6207 28.9406 16.6207C29.8018 16.6207 30.5006 15.9219 30.5006 15.0607C30.5006 14.1994 29.8018 13.5007 28.9406 13.5007V13.5012ZM22.0012 15.3239C18.3144 15.3239 15.3251 18.3131 15.3251 22C15.3251 25.6869 18.3144 28.6747 22.0012 28.6747C25.6881 28.6747 28.6763 25.6869 28.6763 22C28.6763 18.3132 25.6878 15.3239 22.0009 15.3239H22.0012ZM22.0012 17.6666C24.3943 17.6666 26.3346 19.6066 26.3346 22C26.3346 24.3931 24.3943 26.3334 22.0012 26.3334C19.608 26.3334 17.6679 24.3931 17.6679 22C17.6679 19.6066 19.6079 17.6666 22.0012 17.6666Z" fill="white"/>
</svg>
